<?xml version="1.0" encoding="utf-8"?>
<!-- Generator: Adobe Illustrator 19.2.1, SVG Export Plug-In . SVG Version: 6.00 Build 0)  -->
<svg version="1.1" id="Layer_1" xmlns="http://www.w3.org/2000/svg" xmlns:xlink="http://www.w3.org/1999/xlink" x="0px" y="0px"
	 viewBox="0 0 25 25" style="enable-background:new 0 0 25 25;" xml:space="preserve">
<style type="text/css">
	.st0{fill:#F1D4AF;}
</style>
<path class="st0" d="M8.3,0.1C3.3,1.9,2,8.9,1.3,12.4c-0.7,3.7-1.5,8,0.7,10c1.8,1.5,3.4-0.1,9.1,1.4c2.9,0.7,3.6,1.4,5.4,1.2
	c2.9-0.4,4.8-2.5,5.4-3.1c0.7-0.8,2.2-2.4,2.5-4.8c0.3-2.1-0.7-2.7-1.4-5.8c-1-4.7,0.7-5.7-0.6-7.8c-1.5-2.4-5-2.9-8.4-3.4
	C11.4-0.4,10-0.6,8.3,0.1z"/>
</svg>
