<?xml version="1.0" encoding="utf-8"?>
<!-- Generator: Adobe Illustrator 19.2.1, SVG Export Plug-In . SVG Version: 6.00 Build 0)  -->
<svg version="1.1" id="Layer_1" xmlns="http://www.w3.org/2000/svg" xmlns:xlink="http://www.w3.org/1999/xlink" x="0px" y="0px"
	 viewBox="0 0 210.8 358.2" style="enable-background:new 0 0 210.8 358.2;" xml:space="preserve">
<style type="text/css">
	.st0{opacity:0.44;}
	.st1{stroke:#393939;stroke-width:6;stroke-miterlimit:10;}
	.st2{stroke:#393939;stroke-width:9;stroke-miterlimit:10;}
</style>
<g class="st0">
	<g>
		<path class="st1" d="M110.6,278.1c9,0,16.3,9,16.3,20s-7.3,20-16.3,20s-16.2-9-16.2-20S101.7,278.1,110.6,278.1z"/>
		<path class="st1" d="M172.8-25.9c-4.8,0-17.3,0-30.9,0c-1.2-2.5-16.1-3.8-31.2-3.8c-15.5,0-31.1,1.2-32.3,3.8c-15.6,0-31,0-36.4,0
			c-12.4,0-11.5,16.6-11.5,16.6h7.8c0.1,3.5,0.4,10.3,0.8,19.5H17.9C7,10.2,3.1,27.2,0.9,42c-2.1,14.3-3.3,33.8-3.3,53.4
			c0,19.1,1.1,36.7,3.2,49.6c1.3,8,4.6,29.2,17.1,29.2H46c2.1,20.7,9.5,41.9,28.3,53h-0.9c0,0-32.7,39.7-32.7,70.4s0,78.3,0,78.3
			h68.2h0.2h68.2c0,0,0-47.6,0-78.3s-32.7-70.4-32.7-70.4h-1.1c21-12.4,27.8-37.4,28.9-60.2c1.4-29.5,6.5-156.9,7.2-176.3h4.9
			C184.3-9.3,185.2-25.9,172.8-25.9z M19.5,155c-2.8-5.6-6.5-27.7-6.3-62.6c0.2-34.5,3.9-56.7,6.7-62.9h19.8
			c1.6,39.3,3.9,96.6,5.1,125.5H19.5z M110.6,330.1c-14.3,0-26-14.4-26-32c0-17.7,11.7-32.1,26-32.1s26,14.4,26,32.1
			C136.7,315.8,125,330.1,110.6,330.1z"/>
	</g>
</g>
<path class="st2" d="M149.3,325.8L149.3,325.8c-4.2-3.7-4.6-10.2-0.9-14.5l0,0c3.7-4.2,10.2-4.6,14.5-0.9h0
	c4.2,3.7,4.6,10.2,0.9,14.5h0C160,329.1,153.5,329.5,149.3,325.8z"/>
<polyline class="st2" points="40.7,343 177.3,343 199.1,371 20.1,371 "/>
</svg>
