<?xml version="1.0" encoding="utf-8"?>
<!-- Generator: Adobe Illustrator 19.2.1, SVG Export Plug-In . SVG Version: 6.00 Build 0)  -->
<svg version="1.1" id="Layer_1" xmlns="http://www.w3.org/2000/svg" xmlns:xlink="http://www.w3.org/1999/xlink" x="0px" y="0px"
	 viewBox="0 0 200 200" style="enable-background:new 0 0 200 200;" xml:space="preserve">
<style type="text/css">
	.st0{fill:#BBBFAC;}
	.st1{fill:#69340F;}
	.st2{fill:#861A00;}
</style>
<g>
	<g>
		<path class="st0" d="M180.7,140.7h-4.3v-16.5c-0.7,0.4-1.5,0.5-2.4,0.5c-9.2,0-16.4-2.2-21.6-6.5c-1.1-0.9-2-1.8-2.8-2.8
			c-0.6,0.8-1.3,1.6-2.2,2.3c-5.2,4.6-12.9,6.9-22.9,6.9c-9.2,0-16.4-2.2-21.6-6.5c-1.1-0.9-2-1.8-2.8-2.8c-0.6,0.8-1.3,1.6-2.2,2.3
			c-5.2,4.6-12.9,6.9-22.9,6.9c-9.2,0-16.4-2.2-21.6-6.5c-1.1-0.9-2-1.8-2.8-2.8c-0.6,0.8-1.4,1.6-2.2,2.3
			c-5.2,4.6-12.9,6.9-22.9,6.9c-0.6,0-1.3-0.1-1.8-0.3v16.3h-4.3c-3.8,0-6.9,2.5-6.9,5.5v5.5c0,3.1,3.1,5.5,6.9,5.5h161.5
			c3.8,0,6.9-2.5,6.9-5.5v-5.5C187.7,143.1,184.5,140.7,180.7,140.7z"/>
		<path class="st1" d="M41.1,112.6c3.7-3.3,4.2-7.6,4.2-9.6c-0.1-0.9-0.1-1.4-0.1-1.5c0.1-2,2.1-3.7,4.6-3.7
			c2.5-0.1,4.7,1.4,4.9,3.4c0,0.1,0.1,0.6,0.1,1.4c0.2,2,1.1,6.8,5.3,10.2c3.3,2.7,8.3,4.1,14.7,4.1c7.2,0,12.5-1.5,15.8-4.4
			c3.7-3.3,4.2-7.6,4.2-9.6c-0.1-0.9-0.1-1.4-0.1-1.5c0.1-2,2.1-3.7,4.6-3.7c2.5-0.1,4.7,1.4,4.9,3.4c0,0.1,0.1,0.6,0.1,1.4
			c0.2,2,1.1,6.8,5.3,10.2c3.3,2.7,8.3,4.1,14.7,4.1c7.2,0,12.5-1.5,15.8-4.4c3.7-3.3,4.2-7.6,4.2-9.6c-0.1-0.9-0.1-1.4-0.1-1.5
			c0.1-2,2.1-3.7,4.6-3.7c2.5-0.1,4.7,1.4,4.9,3.4c0,0.1,0.1,0.6,0.1,1.4c0.2,2,1.1,6.8,5.3,10.2c3.3,2.7,8.3,4.1,14.7,4.1
			c0.9,0,1.7,0.2,2.4,0.5V99.9c0-3.1-3.1-5.5-6.9-5.5H165V80.3c-0.6,0.3-1.3,0.4-2.1,0.4c-7.8,0-13.9-1.8-18.4-5.5
			c-0.9-0.8-1.7-1.5-2.4-2.4c-0.5,0.7-1.2,1.3-1.9,1.9c-4.4,4-11,5.9-19.5,5.9c-7.7,0-13.9-1.8-18.4-5.5c-0.9-0.8-1.7-1.5-2.4-2.4
			c-0.5,0.7-1.2,1.3-1.9,1.9c-4.4,4-11,5.9-19.5,5.9c-7.7,0-13.9-1.8-18.4-5.5c-0.9-0.8-1.7-1.5-2.4-2.4c-0.5,0.7-1.2,1.3-1.9,1.9
			c-4.3,4.2-10.9,6.2-19.4,6.2c-0.5,0-1.1-0.1-1.5-0.3v13.8h-4.5c-3.8,0-6.9,2.5-6.9,5.5v17.5c0.5-0.2,1.2-0.3,1.8-0.3
			C32.5,117,37.8,115.5,41.1,112.6z"/>
		<path class="st2" d="M49.9,70.4c3.1-2.8,3.6-6.5,3.6-8.2c-0.1-0.7-0.1-1.1-0.1-1.2c0.1-1.8,1.8-3.1,3.9-3.2s3.9,1.2,4.2,2.9
			c0,0.1,0.1,0.5,0.1,1.2c0.2,1.7,0.9,5.7,4.5,8.6c2.9,2.4,7.1,3.5,12.5,3.5c6.1,0,10.6-1.2,13.5-3.8c3.1-2.8,3.6-6.5,3.6-8.2
			c-0.1-0.7-0.1-1.1-0.1-1.2c0.1-1.8,1.8-3.1,3.9-3.2c2.2-0.1,3.9,1.2,4.2,2.9c0,0.1,0.1,0.5,0.1,1.2c0.2,1.7,0.9,5.7,4.5,8.6
			c2.9,2.4,7.1,3.5,12.5,3.5c6.1,0,10.6-1.2,13.5-3.8c3.1-2.8,3.6-6.5,3.6-8.2c-0.1-0.7-0.1-1.1-0.1-1.2c0.1-1.8,1.8-3.1,3.9-3.2
			c2.2-0.1,3.9,1.2,4.2,2.9c0,0.1,0.1,0.5,0.1,1.2c0.2,1.7,0.9,5.7,4.5,8.6c2.9,2.4,7.1,3.5,12.5,3.5c0.7,0,1.4,0.2,2.1,0.4V59.6
			c0-2.6-2.6-4.7-5.8-4.7h-44.9V24.6c0,0,4-3.6,0-3.3c-4.1,0.3-6.5,2.5-13.1,3.8c-0.7,0.2-1.3,0.2-2,0.4c0.3-1.1,0.9-2.3,2.2-3.3
			c2.2-1.7,3.3-3.4,3.2-5.3c-0.2-2.9-3.1-4.8-3.2-4.9c-0.5-0.4-1.3-0.3-1.8,0.2c-0.4,0.4-0.4,1.1,0.2,1.4c0,0,2.2,1.5,2.3,3.5
			c0,1.2-0.8,2.5-2.4,3.8c-2,1.5-2.9,3.3-3.1,5c-3.1,0.3-7.3,0.1-10.9-0.4c-3.6-0.4,0,3.9,0,3.9V55H41c-3.2,0-5.8,2.1-5.8,4.7v14.6
			c0.4-0.2,1-0.3,1.5-0.3C42.5,74.2,47.1,72.9,49.9,70.4z"/>
	</g>
</g>
</svg>
