<?xml version="1.0" encoding="utf-8"?>
<!-- Generator: Adobe Illustrator 19.2.1, SVG Export Plug-In . SVG Version: 6.00 Build 0)  -->
<svg version="1.1" id="Layer_1" xmlns="http://www.w3.org/2000/svg" xmlns:xlink="http://www.w3.org/1999/xlink" x="0px" y="0px"
	 viewBox="0 0 55 55" style="enable-background:new 0 0 55 55;" xml:space="preserve">
<style type="text/css">
	.st0{fill:#FFDA44;}
</style>
<g>
	<path class="st0" d="M25.5,1.4C-4.6,35.5,15.6,51.5,21.3,55c0.9-1.7,2.1-3.2,3.6-4.5c1.1-1,2.4-2.5,2.4-4c-0.1-1.6-1.6-3.2-2.1-3.6
		c-2.4-1.9-2.7-5.3-0.8-7.7c0.9-1.1,2.3-1.9,3.8-2c1.5-0.2,3,0.3,4.1,1.2c0.6,0.5,6,4.9,6.3,11.7c0.1,2.9-0.8,5.6-2.4,8.2
		c1.6,0.4,3.9-0.9,8.1-6.4C56.2,20.9,25.5,1.4,25.5,1.4z"/>
</g>
</svg>
