<?xml version="1.0" encoding="utf-8"?>
<!-- Generator: Adobe Illustrator 19.2.1, SVG Export Plug-In . SVG Version: 6.00 Build 0)  -->
<svg version="1.1" id="Layer_1" xmlns="http://www.w3.org/2000/svg" xmlns:xlink="http://www.w3.org/1999/xlink" x="0px" y="0px"
	 viewBox="0 0 84.1 107.6" style="enable-background:new 0 0 84.1 107.6;" xml:space="preserve">
<style type="text/css">
	.st0{fill:#FFFFFF;stroke:#111008;stroke-miterlimit:10;}
	.st1{font-family:'MyriadPro-Regular';}
	.st2{font-size:12px;}
	.st3{font-size:18px;}
</style>
<path class="st0" d="M69.6,23.2C60.8,9.3,50.6,1,42.1,1c-8.5,0-18.8,8.3-27.5,22.2C6.1,36.8,1,52.6,1,65.4c0,13.1,4.2,24,12,31.3
	c7.3,6.8,17.3,10.4,29.1,10.4s21.8-3.6,29.1-10.4c7.9-7.4,12-18.2,12-31.3C83.2,52.6,78.1,36.8,69.6,23.2L69.6,23.2z"/>
<text transform="matrix(1 0 0 1 19 56)"><tspan x="0" y="0" class="st1 st2">  </tspan><tspan x="5.1" y="0" class="st1 st3">EGG</tspan></text>
</svg>
