<?xml version="1.0" encoding="utf-8"?>
<!-- Generator: Adobe Illustrator 19.2.1, SVG Export Plug-In . SVG Version: 6.00 Build 0)  -->
<svg version="1.1" id="Layer_1" xmlns="http://www.w3.org/2000/svg" xmlns:xlink="http://www.w3.org/1999/xlink" x="0px" y="0px"
	 viewBox="0 0 228.2 228.2" style="enable-background:new 0 0 228.2 228.2;" xml:space="preserve">
<style type="text/css">
	.st0{fill:none;}
	.st1{fill:#FFFFFF;}
	.st2{fill:#006A65;}
	.st3{fill:#FFFFFF;stroke:#AFAFAF;stroke-miterlimit:10;}
	.st4{font-family:'MyriadPro-Regular';}
	.st5{font-size:12px;}
	.st6{fill:#FFFFFF;stroke:#AFAFAF;stroke-width:0.5;stroke-miterlimit:10;}
	.st7{font-size:16px;}
</style>
<rect class="st0" width="228.2" height="228.2"/>
<circle class="st1" cx="114.1" cy="114.1" r="37.4"/>
<g>
	<path class="st2" d="M167.9,25.7h-95V8.1h95L167.9,25.7L167.9,25.7z M173.7,48.2v156.8c0,8.3-4.3,15-9.5,15H76.7
		c-5.2,0-9.5-6.8-9.5-15V48.2c0-8.3,4.3-15,9.5-15h87.5C169.4,33.2,173.7,40,173.7,48.2z M132.9,94.4c7.9,12.5,16.4-27.2,16.4-27.2
		C146.6,68.1,125,81.9,132.9,94.4z M120.1,100.3c3.3,5.2,11.6,1,7.2-17.4c-3.9-16.3,1.7-23.4,1.7-23.4
		C126.3,61,112.7,88.6,120.1,100.3z M109.4,117.2c3.3,5.2,11.6,1,7.2-17.4c-3.9-16.3,1.7-23.4,1.7-23.4
		C115.7,77.8,102,105.5,109.4,117.2z M98.7,146.5c-1.4-2.3-1.8-5.4-2.7-4l-8.8,17c-1,1.6,1.5,8.3,3.6,5l10.4-13.8
		C102.1,149.3,100.1,148.7,98.7,146.5z M105.6,117.3c-3.9-16.3,1.7-23.4,1.7-23.4c-2.7,1.4-16.4,29-9,40.8
		C101.7,139.9,110,135.6,105.6,117.3z M132.2,133.1c0,0-4.5,8.9-14.8,2.7c-11.6-6.9-14.3,6.2-11,11.4
		C113.8,158.9,131.3,137.3,132.2,133.1z M143.2,115.7c0,0-4.5,8.9-14.8,2.7c-11.6-6.9-14.3,6.2-11,11.5
		C124.8,141.5,142.3,119.9,143.2,115.7z M153.9,98.8c0,0-4.5,8.9-14.8,2.7c-11.6-6.9-14.3,6.2-11,11.4
		C135.5,124.7,153,103,153.9,98.8z"/>
</g>
<text transform="matrix(1 0 0 1 79 186)"><tspan x="0" y="0" class="st3 st4 st5">       </tspan><tspan x="17.8" y="0" class="st6 st4 st7">FLOUR</tspan></text>
</svg>
