<?xml version="1.0" encoding="utf-8"?>
<!-- Generator: Adobe Illustrator 19.2.1, SVG Export Plug-In . SVG Version: 6.00 Build 0)  -->
<svg version="1.1" id="Layer_1" xmlns="http://www.w3.org/2000/svg" xmlns:xlink="http://www.w3.org/1999/xlink" x="0px" y="0px"
	 viewBox="0 0 650 650" style="enable-background:new 0 0 650 650;" xml:space="preserve">
<style type="text/css">
	.st0{fill:#2C3E50;}
	.st1{fill:#E74C3C;}
	.st2{fill:#C0392B;}
</style>
<g>
	<g>
		<path class="st0" d="M503.3,583.1c-1.6,20.5-79.8,20.6-176.2,20.6s-174.6-0.2-176.2-20.6H31.2c-4.2,0-8.3-0.9-12.2-2.3v32.9
			c0,18.8,12.5,34,28,34h556c15.5,0,28-15.2,28-34v-30.9c-1.1,0.1-2.1,0.4-3.2,0.4H503.3z"/>
		<path class="st1" d="M603,99.2H47c-15.5,0-28,15.2-28,34v61.6c3.9,0.6,8.1,1.2,12.2,1.2h596.6c1.2,0,2.1-0.2,3.2-0.3v-62.6
			C631,114.4,618.5,99.2,603,99.2z M79.9,169.6c-10.5,0-18.9-10.3-18.9-23c0-12.7,8.5-23,18.9-23c10.5,0,18.9,10.3,18.9,23
			S90.4,169.6,79.9,169.6z M248.1,169.6c-10.5,0-18.9-10.3-18.9-23c0-12.7,8.5-23,18.9-23c10.5,0,18.9,10.3,18.9,23
			S258.5,169.6,248.1,169.6z M360.2,169.6c-10.5,0-18.9-10.3-18.9-23c0-12.7,8.5-23,18.9-23c10.5,0,18.9,10.3,18.9,23
			S370.6,169.6,360.2,169.6z M472.3,169.6c-10.4,0-18.9-10.3-18.9-23c0-12.7,8.5-23,18.9-23c10.5,0,19,10.3,19,23
			S482.7,169.6,472.3,169.6z M584.4,169.6c-10.5,0-19-10.3-19-23c0-12.7,8.5-23,19-23s18.9,10.3,18.9,23S594.8,169.6,584.4,169.6z"
			/>
		<path class="st2" d="M31.2,212.1c-4.3,0-8.4-0.5-12.2-1.1v352.7c3.7,2,7.8,3.3,12.2,3.3h147.4c31.3-5.6,86.1-5.7,148.6-5.7
			c62.5,0,117.3,0.1,148.6,5.7h152c1.2,0,2.2-0.3,3.2-0.4V211.8c-1.1,0.1-2,0.3-3.2,0.3H31.2z M564.5,484.6c0,18.7-12.5,34-28,34
			H113.5c-15.5,0-28-15.2-28-34V294.4c0-18.7,12.5-34,28-34h422.9c15.5,0,28,15.2,28,34V484.6z"/>
		<path class="st0" d="M608.6,2.4H48.1C32.6,2.4,19,17.3,19,36v34c0,18.8,13.6,13,29.1,13h560.5C624,83,631,88.8,631,70V36
			C631,17.3,624,2.4,608.6,2.4z"/>
	</g>
</g>
</svg>
