<?xml version="1.0" encoding="utf-8"?>
<!-- Generator: Adobe Illustrator 19.2.1, SVG Export Plug-In . SVG Version: 6.00 Build 0)  -->
<svg version="1.1" id="Layer_1" xmlns="http://www.w3.org/2000/svg" xmlns:xlink="http://www.w3.org/1999/xlink" x="0px" y="0px"
	 viewBox="0 0 1680 768" style="enable-background:new 0 0 1680 768;" xml:space="preserve">
<style type="text/css">
	.st0{clip-path:url(#SVGID_2_);fill:#E6E6E6;}
	.st1{clip-path:url(#SVGID_4_);fill:#96DFFB;stroke:#FFFFFF;stroke-width:6.7065;stroke-miterlimit:10;}
	.st2{fill:#FF99CC;}
	.st3{fill:#33669A;}
	.st4{fill:#9A6633;}
	.st5{fill:#007994;}
	.st6{fill:#3B053B;}
	.st7{fill:#769400;}
	.st8{fill:#91DC5A;}
	.st9{fill:#CD8900;}
	.st10{fill:#D80027;}
	.st11{fill:#000723;}
	.st12{fill:#000F1C;}
	.st13{fill:#00179B;}
	.st14{fill:#060094;}
	.st15{display:none;}
	.st16{fill:#550031;}
	.st17{fill:#F7DD00;}
</style>
<g id="Background">
</g>
<g id="Art">
	<g>
		<g>
			<g>
				<defs>
					<rect id="SVGID_1_" x="-0.3" width="1680" height="516"/>
				</defs>
				<clipPath id="SVGID_2_">
					<use xlink:href="#SVGID_1_"  style="overflow:visible;"/>
				</clipPath>
				<rect x="-0.3" class="st0" width="1680" height="516"/>
			</g>
			<g>
				<defs>
					<rect id="SVGID_3_" x="-0.3" width="1680" height="516"/>
				</defs>
				<clipPath id="SVGID_4_">
					<use xlink:href="#SVGID_3_"  style="overflow:visible;"/>
				</clipPath>
				<path class="st1" d="M724.7-0.1v548.7 M802,548.5V-0.1 M570.1,548.5V-0.1 M647.4-0.1v548.7 M415.5,548.5V-0.1 M492.8-0.1v548.7
					 M260.9,548.5V-0.1 M338.2-0.1v548.7 M183.6-0.1v548.7 M106.2-0.1v548.7 M30.1-0.1v548.7 M1343.2-0.1v548.7 M1420.5,548.5V-0.1
					 M1497.8,548.5V-0.1 M1575.1,548.5V-0.1 M1651,548.5V-0.1 M1188.6-0.1v548.7 M1265.9,548.5V-0.1 M1033.9-0.1v548.7
					 M1111.2,548.5V-0.1 M879.3-0.1v548.7 M956.6,548.5V-0.1 M-8.7,85.2h1699.8 M-8.7,12.9h1699.8 M-8.7,230h1699.8 M-8.7,157.6
					h1699.8 M1691.1,374.8H-8.7 M1691.1,302.4H-8.7 M1690.9,519.6H-8.9 M1691.1,447.2H-8.7"/>
			</g>
		</g>
		<polygon class="st2" points="1680.3,244.4 1679.7,241.6 1679.7,244.4 		"/>
		<polygon class="st3" points="1543,375.4 1540.9,386.9 1540.9,386.9 		"/>
		<rect x="1211" y="192.4" class="st4" width="468.7" height="35.6"/>
		<polygon class="st4" points="1534.9,419.4 1534.9,419.4 1211.1,419.4 1211.1,455 1679.7,455 1679.7,419.4 		"/>
		<polygon class="st4" points="1534.9,419.4 1679.8,419.4 1679.8,419.4 		"/>
		<rect x="-0.3" y="516" class="st5" width="1680" height="252"/>
		<g>
			<g>
				<path d="M227.7,519.2l8.4-50.4h183.1l8.4,50.4l28.5-2.7l-45-270.4h27.2c10.6,0,19.1-6.4,19.1-14.4c0-7.9-8.6-14.4-19.1-14.4
					H227.8c-10.6,0-19.1,6.4-19.1,14.4c0,7.9,8.6,14.4,19.1,14.4h16.4l-45,270.4L227.7,519.2z M268.3,274.9h118.5l28.7,172.4H239.7
					L268.3,274.9z"/>
			</g>
		</g>
		<g>
			<g>
				<path class="st6" d="M1492.4,141.6c-0.2-3.7-7.9-3.7-7.7,0c0.1,1.8,0.1,3.9-2.2,5c-1.4,0.6-3.1,0.6-4.9,0.5v-10.5
					c-3.5,1.2-8.8,2.2-16.3,3.1c-11.9,1.4-27.4,2.1-43.6,2.1c-16.3,0-31.4-0.7-42.8-2c-9.3-1.1-15.1-2.3-18.1-4.1v11.4
					c-1.6,0.1-3.2,0.1-4.4-0.5c-2.3-1-2.3-3.2-2.2-5c0.2-3.7-7.5-3.7-7.7,0c-0.2,3.7,1.1,8.1,6,9.9c2.7,1,5.5,1.3,8.3,1.2v18.2
					c0,11.9,13.3,21.5,29.8,21.5h62.1c16.5,0,28.9-9.6,28.9-21.5v-18.2c3,0.2,6-0.1,8.8-1.2C1491.3,149.7,1492.6,145.3,1492.4,141.6
					z M1448.6,183.7c-6.2,1.7-8.9-5.7-2.7-7.4c12.7-3.5,9-21,8.7-28.8c-0.2-4.9,10-4.9,10.3,0
					C1465.4,159.9,1467.8,178.4,1448.6,183.7z"/>
				<path class="st6" d="M1357.6,132c0,0.4,0.3,0.8,0.9,1.2c4.9,3.3,29.7,5.7,59.1,5.7c28.7,0,54-2.4,60.1-5.7
					c0.9-0.5,1.4-1,1.4-1.5c0-5.6,0-10.1-28.6-11.9c1.5,0.7,2.3,1.9,2.3,3.1c-0.1,1.5-1.5,3.1-4.5,3.1l-0.3,0
					c-5.7-0.2-10.3-1.7-14.4-4.7c-0.6-0.4-1.1-0.8-1.6-1.2c-0.5-0.4-1-0.8-1.5-1.1c-4-0.1-8.2-0.1-12.8-0.1c-2.6,0-5,0-7.3,0
					c-0.6,0.4-1.3,0.9-2,1.4l-1.3,0.9c-4.2,3-8.8,4.4-14.4,4.7l-0.3,0c-3,0-4.4-1.6-4.5-3.1c-0.1-1.4,1-2.8,3.1-3.4
					C1356.8,121.1,1357.6,126.1,1357.6,132z"/>
				<path class="st6" d="M1404.1,116.3c-0.3,0.2-0.7,0.5-1,0.7c-0.4,0.3-0.7,0.5-1.1,0.8c-0.7,0.5-1.5,1-2.3,1.5
					c-1.9,1-4.1,1.8-7.2,2c-1.8,0.1-1.9,1.1-1.9,1.7c0,0.3-0.4,1.3,2.1,1.3c5.1-0.2,8.9-1.5,12.6-4.1l1.2-0.9l0,0
					c0.7-0.5,1.4-1,2.1-1.5c0.8-0.5,1.6-1,2.5-1.5c1.3-0.7,2.7-1.2,4.4-1.4c0.5-0.1,1-0.1,1.5-0.1c0.2,0,0.5,0,0.7-0.1
					c0.3,0,0.6,0,0.8,0c0.6,0,1.3,0,1.9,0c0.7,0,1.5,0.1,2.2,0.2c0.4,0.1,0.9,0.1,1.4,0.2c0.1,0,0.2,0,0.4,0
					c2.2,0.4,3.7,0.7,4.9,1.2c1.1,0.4,1.9,0.9,2.8,1.5c0.5,0.3,1,0.7,1.6,1.1c0.1,0.1,0.3,0.2,0.5,0.3c0.4,0.3,0.7,0.5,1.1,0.8
					c3.8,2.7,8.3,3.9,13.4,4.1l0.6,0.8l0.1,0.1V125v-0.8c0,0,1.3-1,1.3-1.3c0-0.6-0.7-1.6-2.5-1.7c-2.9-0.1-5.1-0.8-7-1.8
					c-0.9-0.5-1.7-1-2.5-1.5c-0.4-0.3-0.8-0.6-1.2-0.9c-0.3-0.2-0.6-0.4-0.9-0.6c-0.6-0.4-1.2-0.8-1.9-1.2c-2.4-1.5-5-2.4-7.9-2.8
					c0,0,0,0,0,0c0,0,0,0,0,0c-0.3-0.1-0.7-0.1-1-0.1c-0.6-0.1-1.1-0.2-1.7-0.2c-0.6-0.1-1.2-0.1-1.8-0.1c-1.2-0.1-2.5-0.1-3.7,0
					c-0.6,0-1.1,0-1.7,0.1c-0.7,0-1.5,0.1-2.2,0.2c-0.1,0-0.2,0.1-0.3,0.1c-3.1,0.4-5.9,1.3-8.5,2.9
					C1405.2,115.5,1404.6,115.9,1404.1,116.3z"/>
				<path class="st7" d="M1388.3,82.1c-3.5,3.3-4.6,6.4-2.3,10.3c2.5,4.2,8.3,6.9,5.1,12c-1.8,2.8,3.9,5.3,5.7,2.5
					c2.4-3.8,2.5-7.2,0-10.9c-2.4-3.5-8-6.4-3.8-10.4C1395.5,83.2,1390.9,79.7,1388.3,82.1z"/>
				<path class="st7" d="M1411.2,82.1c-3.5,3.3-4.6,6.4-2.3,10.3c2.5,4.2,8.3,6.9,5.1,12c-1.8,2.8,3.9,5.3,5.7,2.5
					c2.4-3.8,2.5-7.2,0-10.9c-2.4-3.5-8-6.4-3.8-10.4C1418.4,83.2,1413.8,79.7,1411.2,82.1z"/>
				<path class="st7" d="M1434.1,82.1c-3.5,3.3-4.6,6.4-2.3,10.3c2.5,4.2,8.3,6.9,5.1,12c-1.8,2.8,3.9,5.3,5.7,2.5
					c2.4-3.8,2.5-7.2,0-10.9c-2.4-3.5-8-6.4-3.8-10.4C1441.4,83.2,1436.8,79.7,1434.1,82.1z"/>
			</g>
		</g>
		<g>
			<g>
				<path class="st8" d="M1260.9,377.2c0.2,0.3,0.4,0.7,0.6,1c0.2,0.4,0.4,0.9,0.5,1.3h4.3c-0.4-0.8-0.8-1.5-1.1-2.3
					c-0.1-0.3-0.2-0.7-0.3-1c-0.1-0.4-0.2-0.7-0.3-1.1c-0.5-2-0.7-4.1-0.5-6.1c-2.7,1.5-6.1,2.6-9.9,3c2.5,1.1,4.5,2.6,5.9,4.3
					C1260.4,376.5,1260.7,376.9,1260.9,377.2z"/>
				<path class="st8" d="M1248,372.3c-0.5-0.1-1.1-0.2-1.7-0.3c0,0.1,0,0.2-0.1,0.3c-0.3,0.8-0.7,1.6-1.3,2.4
					c-1.4,1.9-3.6,3.6-6.4,4.8h10.1h2.4h2.4h0.3h2.3h2.1c-0.1-0.3-0.3-0.7-0.4-1c-0.2-0.4-0.4-0.7-0.7-1.1
					C1255.4,375,1252.1,373.2,1248,372.3z"/>
				<path class="st8" d="M1246.2,367.1c0.2,0.5,0.4,1.1,0.5,1.6c0,0.3,0,0.6,0.1,0.9c0,0,0,0,0,0c0.6,0.1,1.1,0.2,1.7,0.2
					c1.3,0.1,2.6,0.2,3.9,0.1c5.6-0.3,10.3-2.3,12.8-5.1c0.3-0.7,0.6-1.5,0.9-2.2c0.1-0.1,0.2-0.3,0.2-0.4c0.2-0.3,0.4-0.7,0.6-1
					c0-0.1,0.1-0.1,0.1-0.2c0-0.3,0-0.6,0-0.9s0.1-0.6,0-0.9c-0.4-2.7-2.6-5.1-5.8-6.7c-3,1.6-6.8,2.6-11,2.9
					c-0.6,0-1.2,0.1-1.8,0.1c-2.2,0-4.3-0.3-6.3-0.7c0,2.1-0.8,4.1-2.5,5.8C1242.8,362.2,1245.2,364.5,1246.2,367.1z"/>
				<path class="st8" d="M1223.3,379.5c0.1,0,0.3,0,0.4,0.1h1.4h1.8h3.4c6.5-0.8,11.4-3.9,12.7-7.8c0.1-0.2,0.2-0.4,0.2-0.6
					c0-0.1,0-0.3,0.1-0.4c0-0.3,0-0.5,0-0.8c0-0.1,0-0.2,0-0.3c0-0.2,0-0.4,0-0.7c0-0.1,0-0.1,0-0.1c-0.5-2.6-2.5-4.9-5.6-6.5v0
					c-0.6,0.4-1.2,0.8-1.9,1.1c-0.4,0.3-0.9,0.5-1.4,0.7c-0.5,0.2-1,0.4-1.5,0.6c-2.6,1-5.5,1.6-8.6,1.8c-0.6,0-1.2,0.1-1.8,0.1
					c-0.5,0-1-0.1-1.5-0.1c0.1,0.3,0.1,0.5,0.2,0.8c0.5,3.6-1.6,7-5.5,9.5C1217.6,378.2,1220.3,379.1,1223.3,379.5z"/>
				<path class="st8" d="M1241.6,352c0,0.1,0.1,0.3,0.1,0.4c2.5,0.7,5.2,1,8.1,0.8c3.1-0.2,5.9-0.9,8.3-2c0.5-0.2,1-0.5,1.4-0.8
					c0.4-0.3,0.9-0.5,1.3-0.8c2.7-2,4.1-4.5,3.7-7.2c-0.8-5.1-7.7-9-16.2-9c-0.5,0-1,0-1.5,0c-8.9,0.5-15.4,5.3-14.7,10.7
					c3.7,1.3,6.6,3.3,8.3,5.7c0.2,0.3,0.4,0.7,0.6,1C1241.3,351.3,1241.5,351.7,1241.6,352z"/>
				<path class="st8" d="M1217.2,366.2c-0.2-0.4-0.4-0.8-0.6-1.2c-0.3-0.5-0.6-1-1-1.4c-0.1-0.2-0.3-0.3-0.4-0.4
					c-0.3-0.3-0.6-0.6-1-0.9c-0.4-0.3-0.8-0.6-1.2-0.8c-1.3-0.8-2.9-1.5-4.6-2c-0.7-0.2-1.5-0.4-2.3-0.5c-0.7-0.1-1.4-0.2-2.1-0.3
					c-0.8-0.1-1.6-0.1-2.4-0.1c-0.5,0-1,0-1.5,0c-4.3,0.2-8.2,1.5-11,3.5c-2.8,2-4.1,4.6-3.7,7.2c0.8,5.4,8.6,9.5,17.7,9
					c2.9-0.2,5.5-0.8,7.8-1.8c0.5-0.2,1-0.4,1.4-0.7c0.4-0.2,0.8-0.5,1.2-0.8c3-2,4.7-4.7,4.3-7.6
					C1217.5,367.1,1217.3,366.7,1217.2,366.2z"/>
				<path class="st8" d="M1175.9,333.6c12.6,2.4,24.8,6.1,31.9,13c0.3,0.3,0.6,0.6,0.9,1c0.3,0.3,0.6,0.7,0.9,1
					c-2.5,1.9-3.8,4.4-3.4,7c0.1,0.5,0.3,0.9,0.4,1.3c3.4,0.6,6.5,1.7,8.9,3.2c0.4,0.3,0.8,0.5,1.2,0.8c0.4,0.3,0.7,0.6,1,0.9
					c0.9,0.8,1.6,1.7,2.2,2.7c1.3,0.1,2.6,0.2,3.9,0.1c2.9-0.2,5.5-0.8,7.8-1.8c0.5-0.2,1-0.5,1.5-0.8c0.5-0.3,1-0.5,1.4-0.8
					c0,0,0.1,0,0.1-0.1c0,0,0.1-0.1,0.2-0.1c0.3-0.2,0.5-0.5,0.8-0.7c0.3-0.3,0.7-0.6,1-0.9c1.5-1.7,2.2-3.6,1.9-5.6c0,0,0,0,0,0
					c0,0,0-0.1,0-0.1c-0.1-0.4-0.2-0.8-0.4-1.3c0,0,0-0.1,0-0.1c-0.1-0.4-0.3-0.7-0.5-1.1c-0.2-0.3-0.3-0.5-0.5-0.8
					c-0.8-1.1-2-2.1-3.4-2.9c-0.8-0.5-1.7-0.9-2.6-1.3c-0.6-0.2-1.3-0.4-2-0.6c-2-0.6-4.3-0.9-6.7-0.9c-0.5,0-1,0-1.5,0
					c-1.7,0.1-3.3,0.4-4.7,0.8c-0.3-0.3-0.6-0.6-0.9-0.9c-0.3-0.3-0.6-0.6-0.9-0.9c-8.5-7.9-22.1-12.1-37-15
					C1172.3,327.8,1170.9,332.7,1175.9,333.6z"/>
				<path class="st8" d="M1199.3,342.7c-16.6-10.3-25.8,12.9-25.8,12.9C1184.6,359.3,1215.9,353,1199.3,342.7z"/>
				<path class="st8" d="M1380.9,318.1c-14.1,0.7-27.6,2.6-38.5,7.5c-0.8,0.4-1.6,0.7-2.4,1.1c-0.8,0.4-1.6,0.8-2.3,1.3
					c-1.7-0.3-3.5-0.4-5.2-0.4c-9.9,0-19.3,4.1-22.6,10.6c-0.2,0.3-0.3,0.7-0.5,1c-0.9,1.6-3.4,4.7-9.9,6.7
					c-9.2,2.8-13.9,5.5-13.9,5.5l0,0c-5.5,2.5-10,5.8-12.8,9.7c-0.2,0.3-0.5,0.7-0.7,1c-0.2,0.3-0.4,0.7-0.6,1
					c-0.1,0.2-0.2,0.3-0.3,0.4c-1.9,3.7-2.3,7.5-1.3,11.1c0.1,0.4,0.2,0.7,0.3,1.1c0.1,0.4,0.2,0.7,0.4,1.1c0.4,0.9,0.8,1.8,1.4,2.7
					h2.9h2.5h2.4h1.4h2.4h2.3h75.7c1.8-4.5,1.4-9.1-0.8-13.4l0,0c0,0-1.1-3.9-5.9-9.4c-3.8-4.4-2.4-8.1-1.7-9.5
					c0.1-0.2,0.2-0.4,0.3-0.6c0.3-0.5,0.5-1,0.6-1.5c-4.7-1.9-8.4-4.3-9.8-7.1c-0.8-1.6-1.2-4.4,2.5-7.2c-0.3-0.1-0.5-0.3-0.8-0.4
					c0.7-0.3,1.4-0.7,2.1-1c0.7-0.3,1.5-0.6,2.3-0.9c0.4-0.2,0.8-0.3,1.2-0.4c0.3-0.1,0.7-0.3,1-0.4c2.6-1,5-1.6,7.4-1.9
					c6.5-1.4,13.6-2.1,20.6-2.5C1385.9,323,1386.4,317.8,1380.9,318.1z"/>
				<path class="st8" d="M1362.1,327.8c-2.2,0-4.8,0.5-7.8,1.7c-0.6,0.2-1.1,0.5-1.6,0.7c-0.7,0.3-1.4,0.7-2,1
					c-0.7,0.4-1.3,0.8-1.7,1.2c-4.4,3.7-0.8,7.6,5.4,10.4c0.8,0.4,1.6,0.7,2.5,1c0.8,0.3,1.6,0.6,2.4,0.8c4.2,1.3,8.9,2.1,12.9,2.1
					c1.4,0,2.8-0.1,3.9-0.3C1376.2,346.4,1375.6,327.8,1362.1,327.8z"/>
				<path class="st9" d="M1287.6,381.7h-2h-2h-7.8h-2.7h-0.5h-2.4h-2.8h-0.1h-5.2h-1.7h-0.1h-1.7h-2.9h-0.2h-1.8h-1.4h-0.6h-21h-4.5
					h-1.7h-1.7h-0.1h-32.4c0,30.5,40.5,37.7,90.5,37.7s90.5-7.3,90.5-37.7h-5.9h-2.7h-2.8L1287.6,381.7L1287.6,381.7z"/>
			</g>
		</g>
		<g>
			<g>
				<path class="st10" d="M1256.7,165.9c1,0.2,2,0.3,3.1,0.3c1.1,0,2.1-0.1,3.1-0.3c0.2,0,0.4-0.1,0.6-0.2l-0.4-2.8
					c-1,0.3-2.1,0.4-3.2,0.4c-4.7,0-8.4-2.1-11.2-8c-0.3-0.6-0.6-1.2-0.8-1.9c-3.4-8.6-5.2-21.6-5.2-40.5h13.1c0.2-1,0.5-2,1.1-2.9
					h-15.2h-1.8h-38.3v1.1c0,34.7,5.4,52.3,17,54.9c1,0.2,2,0.3,3.1,0.3c1.1,0,2.1-0.1,3.1-0.3c8.9-1.9,14.1-12.8,16.1-33.3
					C1242.6,153.2,1247.9,164,1256.7,165.9z M1233.5,153.3c-0.3,0.7-0.6,1.4-0.9,2c-2.8,5.9-6.4,8-11.1,8c-4.7,0-8.4-2.1-11.2-8
					c-0.3-0.6-0.6-1.2-0.8-1.9c-3.4-8.6-5.2-21.6-5.2-40.5h34.5C1238.7,131.7,1236.9,144.7,1233.5,153.3z"/>
				<path class="st11" d="M1259.8,160.6c1,0,1.9-0.2,2.8-0.5l-3.8-26.5h-12.3C1248.3,154.7,1254.2,160.6,1259.8,160.6z"/>
				<path class="st10" d="M1249.2,193.5h18.3l-0.6-4.5h-4v-20.6c-1,0.2-2,0.3-3.1,0.3s-2.1-0.1-3.1-0.3V189h-7.6
					c-1,0-1.9,0.6-1.9,1.4v1.7C1247.3,192.9,1248.1,193.5,1249.2,193.5z"/>
				<path class="st12" d="M1221.5,160.6c5.6,0,11.1-5.3,13.3-27h-26.6C1210,154.7,1215.9,160.6,1221.5,160.6z"/>
				<path class="st10" d="M1221.5,168.7c-1,0-2.1-0.1-3.1-0.3V189h-7.6c-1,0-1.9,0.6-1.9,1.4v1.7c0,0.8,0.8,1.4,1.9,1.4h20.7
					c1,0,1.9-0.6,1.9-1.4v-1.7c0-0.8-0.8-1.4-1.9-1.4h-7.1v-20.6C1223.5,168.6,1222.5,168.7,1221.5,168.7z"/>
				<path class="st13" d="M1336.1,105c0.2-0.9,0.3-1.8,0.4-2.7c0-0.2,0-0.4,0-0.6c0.1-3.1-0.5-6.1-1.6-8.9c-1.2-3.5-2.8-6.7-3.3-9.4
					c-1.1-5.4-0.3-9.5-0.3-9.5l3.1-14.6l-16.1-3.6l-3.1,14.7c0,0-1,4.6-5.1,8.4c-3.7,3.4-9.9,8.2-12.3,15.5
					c-0.3,0.8-0.5,1.5-0.7,2.3l-0.4,2.1l13,3.4l-0.7,2.9L1336.1,105L1336.1,105z"/>
				<path class="st10" d="M1321,151.4c0.4,0.3,0.7,0.5,1.1,0.7c0.4,0.2,0.8,0.5,1.2,0.7c4.4,2.6,9.4,4,14.9,4c1.7,0,3.4-0.1,5.2-0.4
					c0.2,0,0.4,0,0.5,0c0.3,0,0.5,0,0.8,0.1l5.2-33.6c-0.8,0.2-1.6,0.4-2.4,0.4h-12.6h-1.3h-1.3h-40.8h-1.3h-1.3h-9.2h-2.8h-13.4
					c-0.8,0-1.5-0.1-2.2-0.3l1.5,10.6l3.4,24l0.5,3.5l0.4,3.1l1.6,11.3h73l1.9-12.5c-1.8,0.2-3.5,0.3-5.2,0.3
					c-8.1,0-15.5-2.5-21.7-6.9c-0.4-0.3-0.8-0.6-1.2-0.9c-0.4-0.3-0.8-0.6-1.2-0.9c-4-3.4-7.5-7.7-10.3-12.7
					c-8.1-0.4-8-13.2,0.3-13.2c5.8,0,7.6,6.2,5.5,10.1C1312.7,143.9,1316.5,148.2,1321,151.4z"/>
				<polygon class="st10" points="1340.1,185.8 1270.2,185.8 1270.7,189.1 1271.3,193.1 1271.3,193.3 1338.9,193.3 				"/>
				<path class="st14" d="M1337.6,110h-1.3h-1.3h-40.8h-1.3h-1.3h-11.7h-16.5c-1.8,0-3.3,1.2-3.8,2.9c-0.1,0.4-0.2,0.8-0.2,1.3
					c0,1.4,0.7,2.6,1.6,3.3c0.7,0.5,1.5,0.8,2.4,0.8h13.6h2.8h10.1h1.3h1.3h40.8h1.3h1.3h11.6c0.9,0,1.7-0.3,2.4-0.8
					c1-0.8,1.6-2,1.6-3.3c0-2.3-1.8-4.1-4-4.1L1337.6,110L1337.6,110z"/>
				<polygon class="st10" points="1322.3,43.5 1321,52.1 1320.8,53.4 1320.8,53.7 1333.4,56.5 1333.6,56.1 1334,54.9 1336.9,47 				
					"/>
			</g>
		</g>
		<g>
			<polygon class="st10" points="301.5,189.7 294.9,182.6 281,184.3 299.3,162.8 263.5,162.8 263.5,219.3 324.4,219.3 324.4,162.8 
							"/>
			<path class="st10" d="M401.7,135.8h-40.4c2.4-0.8,4.5-1.6,6.3-2.5c7.2-3.4,11-7.7,11-12c0-3.5-2.5-8.5-6.2-10.6
				c-3.7-2.1-8.5-3.4-13.7-3.4c-5.5,0-10.7,1.3-15.1,3.2c-6.6,2.9-11.8,9.3-15.5,14.1c-0.2,0.2-0.4,0.5-0.5,0.7
				c-1.3-1.9-2.9-5.6-4.7-7.3c-3.1-3-6.9-5.6-11.3-7.5c-4.4-2-9.5-3.2-15.1-3.2c-5.5,0-10.6,1.5-14.3,3.9c-3.8,2.3-6.4,7.6-6.4,11.3
				c0,2.2,0.9,4.5,2.9,6.6c2.5,2.6,6.5,4.9,12,6.7h-37.2l0.1,22.5h69.9v-22.5h8.5v22.5h69.9L401.7,135.8z M293,128.8
				c-2.8-1.2-4.5-2.4-5.5-3.4c-1-1-1.3-2.9-1.3-3.8c0-1.5,1.1-4.2,3.1-5.4c2-1.3,4.7-2,7.1-2h0.1c3.1,0,6.2,0.7,9.3,2.1
				c4.6,2,9,7.5,12,11.5c1.6,2,2.8,4.2,3.6,6.3C307.3,133,298.3,131,293,128.8z M340.9,123.9c2.5-2.4,5.5-6.3,8.6-7.7
				c3.1-1.3,6.2-2,9.3-2.1h0c2.6,0,5.1,0.7,6.8,1.7c1.7,1,2.6,2.9,2.6,4.2c0,1.5-1.2,5.1-6.7,7.7c-5.1,2.5-14.1,5-27.8,6.8
				C335,130.9,337.5,127.1,340.9,123.9z"/>
			<polygon class="st10" points="374.3,184.2 360.4,182.6 353.8,189.8 331.2,163.1 331.2,219.3 391.8,219.3 391.8,162.8 356,162.8 
							"/>
		</g>
		<g>
			<path class="st10" d="M1465.4,364.6c-5.2,0-7.6,2.4-10.8,5.8c-3.7,3.8-8.3,8.5-17,8.5c-8.7,0-13.3-4.7-17-8.5
				c-3.3-3.3-5.6-5.8-10.8-5.8c-5.2,0-7.6,2.4-10.8,5.8c-1.7,1.7-3.7,3.6-6,5.2c7.3,14.1,20,29.6,39.7,45.6v43.4l-17.5-27.7
				c0,0-11.6,14.7-11.6,34.6h20.1l-19.5,23.2l10,0.2v12.2l18.5-22.2v34.3h9.6v-34.3l18.5,22.2v-12.2l10.2-0.2l-19.3-23.2h20.1
				c0-20-11.8-34.6-11.8-34.6l-17.7,27.7v-43.4c20.3-16,32.6-31.5,39.9-45.6c-2.4-1.6-4.2-3.5-5.9-5.2
				C1472.9,367.1,1470.6,364.6,1465.4,364.6L1465.4,364.6z"/>
			<path class="st10" d="M1409.6,353.2c8.7,0,13.3,4.7,17,8.5c3.3,3.3,5.6,5.8,10.8,5.8c5.2,0,7.6-2.4,10.8-5.8
				c3.7-3.8,8.3-8.5,17-8.5c8.7,0,13.3,4.7,17,8.5c1.5,1.5,2.7,2.8,4.2,3.8c10.8-29.9-2.1-51.8-14.6-56.6
				c-16.8-6.4-31.2,5.9-34.5,22c-3.2-16.1-17.7-28.4-34.5-22c-12.5,4.8-25.4,26.7-14.6,56.6c1.4-1,2.7-2.3,4.2-3.8
				C1396.3,358,1400.9,353.2,1409.6,353.2L1409.6,353.2z"/>
		</g>
	</g>
</g>
<g id="Template" class="st15">
</g>
<polyline points="1359.3,516.3 1359.3,609.7 1359.8,767.7 1373.3,767.7 1373.3,517.3 "/>
<g>
	<polygon class="st16" points="199.2,519.2 199.2,529.8 240.6,529.8 240.6,571.1 264.5,560.5 287.7,571.1 287.7,529.8 323.4,529.8 
		323.4,571.1 347.3,560.5 370.5,571.1 370.5,529.8 411.2,529.8 411.2,519.2 	"/>
	<polygon class="st17" points="199.2,633 223.1,622.3 246.3,633 246.3,591.7 282,591.7 282,633 305.9,622.3 329.1,633 329.1,591.7 
		364.1,591.7 364.1,633 388,622.3 411.2,633 411.2,581.1 199.2,581.1 	"/>
</g>
</svg>
