<?xml version="1.0" encoding="utf-8"?>
<!-- Generator: Adobe Illustrator 19.2.1, SVG Export Plug-In . SVG Version: 6.00 Build 0)  -->
<svg version="1.1" id="Layer_1" xmlns="http://www.w3.org/2000/svg" xmlns:xlink="http://www.w3.org/1999/xlink" x="0px" y="0px"
	 viewBox="0 0 1680 768" style="enable-background:new 0 0 1680 768;" xml:space="preserve">
<style type="text/css">
	.st0{fill:#FFEBB1;}
	.st1{clip-path:url(#SVGID_4_);fill:#FFEBB1;}
	.st2{clip-path:url(#SVGID_6_);fill:#FFEBB1;stroke:#AFAFAF;stroke-width:6.25;stroke-miterlimit:10;}
	.st3{fill:#008D8B;}
	.st4{fill:#000E0D;}
	.st5{fill:#00234D;}
	.st6{display:none;}
	.st7{fill:#3B053B;}
	.st8{fill:#629400;}
	.st9{fill:#D80027;}
	.st10{fill:#7F0003;}
	.st11{fill:#FFFFFF;}
</style>
<g id="Background">
</g>
<g id="Art">
	<g>
		<g>
			<g>
				<g>
					<rect id="SVGID_1_" class="st0" width="1680" height="516.5"/>
				</g>
				<g>
					<defs>
						<rect id="SVGID_2_" width="1680" height="516.5"/>
					</defs>
					<clipPath id="SVGID_4_">
						<use xlink:href="#SVGID_2_"  style="overflow:visible;"/>
					</clipPath>
					<rect class="st1" width="1680" height="516.5"/>
				</g>
			</g>
			<g>
				<g>
					<rect id="SVGID_3_" class="st0" width="1680" height="516.5"/>
				</g>
				<g>
					<defs>
						<rect id="SVGID_5_" width="1680" height="516.5"/>
					</defs>
					<clipPath id="SVGID_6_">
						<use xlink:href="#SVGID_5_"  style="overflow:visible;"/>
					</clipPath>
					<path class="st2" d="M443.8,26.8h-132v-66h132V26.8z M575.9-39.3h-132v66h132V-39.3z M972-39.3H840v66h132V-39.3z M707.9-39.3
						h-132v66h132V-39.3z M840-39.3H708v66h132V-39.3z M509.8,26.8h-132v66h132V26.8z M906,26.8H774v66h132V26.8z M1038,26.8H906v66
						h132V26.8z M641.9,26.8h-132v66h132V26.8z M773.9,26.8h-132v66h132V26.8z M443.8,92.7h-132v66h132V92.7z M575.9,92.7h-132v66
						h132V92.7z M972,92.7H840v66h132V92.7z M707.9,92.7h-132v66h132V92.7z M840,92.7H708v66h132V92.7z M509.8,158.7h-132v66h132
						V158.7z M906,158.7H774v66h132V158.7z M1038,158.7H906v66h132V158.7z M641.9,158.7h-132v66h132V158.7z M773.9,158.7h-132v66
						h132V158.7z M443.8,224.7h-132v66h132V224.7z M575.9,224.7h-132v66h132V224.7z M972,224.7H840v66h132V224.7z M707.9,224.7h-132
						v66h132V224.7z M840,224.7H708v66h132V224.7z M509.8,290.8h-132v66h132V290.8z M906,290.8H774v66h132V290.8z M1038,290.8H906
						v66h132V290.8z M641.9,290.8h-132v66h132V290.8z M773.9,290.8h-132v66h132V290.8z M443.8,356.7h-132v66h132V356.7z
						 M575.9,356.7h-132v66h132V356.7z M972,356.7H840v66h132V356.7z M707.9,356.7h-132v66h132V356.7z M840,356.7H708v66h132V356.7z
						 M509.8,422.7h-132v66h132V422.7z M906,422.7H774v66h132V422.7z M1038,422.7H906v66h132V422.7z M641.9,422.7h-132v66h132V422.7
						z M773.9,422.7h-132v66h132V422.7z M1368.1,26.8h-132v-66h132V26.8z M1500.2-39.3h-132v66h132V-39.3z M1104-39.3H972v66h132
						V-39.3z M1236.1-39.3h-132v66h132V-39.3z M1632.2-39.3h-132v66h132V-39.3z M1764.3-39.3h-132v66h132V-39.3z M1302.1,26.8h-132
						v66h132V26.8z M1434.2,26.8h-132v66h132V26.8z M1038,26.8H906v66h132V26.8z M1170.1,26.8h-132v66h132V26.8z M1566.2,26.8h-132
						v66h132V26.8z M1698.2,26.8h-132v66h132V26.8z M1368.1,92.7h-132v66h132V92.7z M1500.2,92.7h-132v66h132V92.7z M1104,92.7H972
						v66h132V92.7z M1236.1,92.7h-132v66h132V92.7z M1632.2,92.7h-132v66h132V92.7z M1764.3,92.7h-132v66h132V92.7z M1302.1,158.7
						h-132v66h132V158.7z M1434.2,158.7h-132v66h132V158.7z M1038,158.7H906v66h132V158.7z M1170.1,158.7h-132v66h132V158.7z
						 M1566.2,158.7h-132v66h132V158.7z M1698.2,158.7h-132v66h132V158.7z M1368.1,224.7h-132v66h132V224.7z M1500.2,224.7h-132v66
						h132V224.7z M1104,224.7H972v66h132V224.7z M1236.1,224.7h-132v66h132V224.7z M1632.2,224.7h-132v66h132V224.7z M1764.3,224.7
						h-132v66h132V224.7z M1302.1,290.8h-132v66h132V290.8z M1434.2,290.8h-132v66h132V290.8z M1038,290.8H906v66h132V290.8z
						 M1170.1,290.8h-132v66h132V290.8z M1566.2,290.8h-132v66h132V290.8z M1698.2,290.8h-132v66h132V290.8z M1368.1,356.7h-132v66
						h132V356.7z M1500.2,356.7h-132v66h132V356.7z M1104,356.7H972v66h132V356.7z M1236.1,356.7h-132v66h132V356.7z M1632.2,356.7
						h-132v66h132V356.7z M1764.3,356.7h-132v66h132V356.7z M1302.1,422.7h-132v66h132V422.7z M1434.2,422.7h-132v66h132V422.7z
						 M1038,422.7H906v66h132V422.7z M1170.1,422.7h-132v66h132V422.7z M1566.2,422.7h-132v66h132V422.7z M1698.2,422.7h-132v66h132
						V422.7z M47.8,26.8h-132v-66h132C47.8-39.2,47.8,26.8,47.8,26.8z M179.8-39.3h-132v66h132V-39.3z M311.9-39.3h-132v66h132
						V-39.3z M113.8,26.8h-132v66h132V26.8z M245.8,26.8h-132v66h132V26.8z M377.9,26.8h-132v66h132V26.8z M47.8,92.7h-132v66h132
						C47.8,158.7,47.8,92.7,47.8,92.7z M179.8,92.7h-132v66h132V92.7z M311.9,92.7h-132v66h132V92.7z M113.8,158.7h-132v66h132
						V158.7z M245.8,158.7h-132v66h132V158.7z M377.9,158.7h-132v66h132V158.7z M47.8,224.7h-132v66h132
						C47.8,290.7,47.8,224.7,47.8,224.7z M179.8,224.7h-132v66h132V224.7z M311.9,224.7h-132v66h132V224.7z M113.8,290.8h-132v66
						h132V290.8z M245.8,290.8h-132v66h132V290.8z M377.9,290.8h-132v66h132V290.8z M47.8,356.7h-132v66h132
						C47.8,422.7,47.8,356.7,47.8,356.7z M179.8,356.7h-132v66h132V356.7z M311.9,356.7h-132v66h132V356.7z M113.8,422.7h-132v66
						h132V422.7z M245.8,422.7h-132v66h132V422.7z M377.9,422.7h-132v66h132V422.7z M443.8,554.9h-132v-66h132V554.9z M575.9,488.9
						h-132v66h132V488.9z M972,488.9H840v66h132V488.9z M707.9,488.9h-132v66h132V488.9z M840,488.9H708v66h132V488.9z M509.8,554.9
						h-132v66h132V554.9z M906,554.9H774v66h132V554.9z M1038,554.9H906v66h132V554.9z M641.9,554.9h-132v66h132V554.9z
						 M773.9,554.9h-132v66h132V554.9z M443.8,620.9h-132v66h132V620.9z M575.9,620.9h-132v66h132V620.9z M972,620.9H840v66h132
						V620.9z M707.9,620.9h-132v66h132V620.9z M840,620.9H708v66h132V620.9z M1368.1,554.9h-132v-66h132V554.9z M1500.2,488.9h-132
						v66h132V488.9z M1104,488.9H972v66h132V488.9z M1236.1,488.9h-132v66h132V488.9z M1632.2,488.9h-132v66h132V488.9z
						 M1764.3,488.9h-132v66h132V488.9z M1302.1,554.9h-132v66h132V554.9z M1434.2,554.9h-132v66h132V554.9z M1038,554.9H906v66h132
						V554.9z M1170.1,554.9h-132v66h132V554.9z M1566.2,554.9h-132v66h132V554.9z M1698.2,554.9h-132v66h132V554.9z M1368.1,620.9
						h-132v66h132V620.9z M1500.2,620.9h-132v66h132V620.9z M1104,620.9H972v66h132V620.9z M1236.1,620.9h-132v66h132V620.9z
						 M1632.2,620.9h-132v66h132V620.9z M1764.3,620.9h-132v66h132V620.9z M47.8,554.9h-132v-66h132
						C47.8,488.9,47.8,554.9,47.8,554.9z M179.8,488.9h-132v66h132V488.9z M311.9,488.9h-132v66h132V488.9z M113.8,554.9h-132v66
						h132V554.9z M245.8,554.9h-132v66h132V554.9z M377.9,554.9h-132v66h132V554.9z M47.8,620.9h-132v66h132
						C47.8,686.9,47.8,620.9,47.8,620.9z M179.8,620.9h-132v66h132V620.9z M311.9,620.9h-132v66h132V620.9z"/>
				</g>
			</g>
		</g>
		<rect y="516.5" class="st3" width="1680" height="251.5"/>
		<rect y="276.2" class="st4" width="491.3" height="35.6"/>
		<rect y="457.1" class="st4" width="491.3" height="35.6"/>
		<rect x="1186.8" y="276.2" class="st4" width="493.2" height="35.6"/>
		<rect x="1186.8" y="457.1" class="st4" width="493.2" height="35.6"/>
		<path class="st5" d="M338.3,382.3H223c0,0,0.5,15.2,1.9,36c1.5,21.6,14.7,34.9,25.7,40.4h55.2c9.2-4.6,19.9-14.6,24-30.4
			c2.6,1,5.5,1.6,8.4,1.6c13.1,0,23.8-10.7,23.8-23.8S351.4,382.3,338.3,382.3z M338.3,418.8c-2.5,0-4.7-0.7-6.7-1.9
			c0.6-9.3,1.1-17.4,1.4-23.4h5.3c7,0,12.7,5.7,12.7,12.7S345.3,418.8,338.3,418.8z"/>
		<path class="st5" d="M485.3,380.6H370c0,0,0.5,15.2,1.9,36c1.5,21.6,14.7,34.9,25.7,40.4h55.2c9.2-4.6,19.9-14.6,24-30.4
			c2.6,1,5.5,1.6,8.4,1.6c13.1,0,23.8-10.7,23.8-23.8S498.4,380.6,485.3,380.6z M485.3,417.1c-2.5,0-4.7-0.7-6.7-1.9
			c0.6-9.3,1.1-17.4,1.4-23.4h5.3c7,0,12.7,5.7,12.7,12.7S492.3,417.1,485.3,417.1z"/>
	</g>
</g>
<g id="Template" class="st6">
</g>
<g>
	<g>
		<path class="st7" d="M326.6,186.1h-86.2l-67-44.3c2.5-4.9,1.2-10.6-3.9-14.5l-0.3-0.2c-6.9-5.3-18.1-5.3-25,0l-24.5,18.7
			c-6.9,5.3-6.9,13.8,0,19.1l0.3,0.2c5.1,3.9,12.6,4.9,19,3l20.3,17.9h-44.2c0,27.8,18.1,52.2,45.8,66.8c-3.2,2.4-5.3,5.9-5.3,9.6
			v0.3c0,7.5,8.1,13.4,17.9,13.4h93.9c9.8,0,17.4-6,17.4-13.4v-0.3c0-3.6-1.7-6.9-4.8-9.4C308.1,238.6,326.6,214,326.6,186.1
			L326.6,186.1z M166.5,148.8l56.5,37.3h-48.5l-26.4-23.3L166.5,148.8L166.5,148.8z"/>
	</g>
</g>
<g>
	<g>
		<path class="st8" d="M492.8,267.7c-1.3-2.8-21.8-52.1-24.6-58.9c-2.8-6.7-10-8.5-18.2-8.5c-2.8,0-13.7,0-26.7,0v-6.2
			c49.6-3,62.9-26.6,62.9-26.6H342.8c0,0,11.1,25,64.2,26.8v6.1c-12.1,0-22,0-24.7,0c-8.2,0-15.4,1.8-18.2,8.5
			c-2.8,6.7-23.3,56.1-24.6,58.9c-1.6,3.5-1.1,8,9.9,8c1.2,0,4,0,7.8,0v3.8h116.5v-3.8c4.5,0,7.8,0,9.2,0
			C493.9,275.6,494.3,271.1,492.8,267.7z M416.1,206.7c26.9,0,48.6,14,48.6,31.3s-21.8,31.3-48.6,31.3c-26.9,0-48.6-14-48.6-31.3
			S389.3,206.7,416.1,206.7z"/>
		<path class="st8" d="M388.2,224.2l-5-2.3l-1.5,1.3l4.9,2.2C387.1,225,387.7,224.6,388.2,224.2z"/>
		<path class="st8" d="M401.9,217.2l-2.7-3.5l-2.3,0.7l2.8,3.6C400.4,217.7,401.2,217.4,401.9,217.2z"/>
		<path class="st8" d="M380.8,238c0-0.2,0.1-0.4,0.1-0.5h-6.2v1.6h6.3C381,238.7,380.8,238.3,380.8,238z"/>
		<path class="st8" d="M454.3,226l-1.2-1.4l-6.4,2.2c0.4,0.5,0.8,0.9,1.2,1.4L454.3,226z"/>
		<path class="st8" d="M439.5,215.5l-2.2-0.8l-3.5,3.8c0.7,0.3,1.5,0.5,2.2,0.8L439.5,215.5z"/>
		<path class="st8" d="M418,215.4v-4.2h-2.5v4.1c0.2,0,0.4,0,0.6,0C416.8,215.3,417.4,215.4,418,215.4z"/>
		<path class="st8" d="M436.6,262.1l-3.4-4.4c-0.7,0.3-1.5,0.6-2.2,0.8l3.3,4.3L436.6,262.1z"/>
		<path class="st8" d="M451.8,253.2l-6.2-2.8c-0.5,0.5-1,0.9-1.5,1.3l6.2,2.9L451.8,253.2z"/>
		<path class="st8" d="M451.4,238c0,0.4-0.1,0.7-0.2,1.1h7.5v-1.6h-7.5C451.4,237.6,451.4,237.8,451.4,238z"/>
		<path class="st8" d="M415.5,260.6v4.7h2.5v-4.7c-0.6,0-1.2,0.1-1.9,0.1C415.9,260.7,415.7,260.6,415.5,260.6z"/>
		<path class="st8" d="M385,248.4l-5.8,2l1.2,1.4l5.7-2C385.7,249.4,385.4,248.9,385,248.4z"/>
		<path class="st8" d="M399.8,258c-0.8-0.3-1.5-0.5-2.2-0.8L394,261l2.2,0.8L399.8,258z"/>
		<path class="st8" d="M401.2,253.9l2,0.7l12.2-13.2c0.5,0.1,1,0.2,1.5,0.2c4.3,0,7.8-2.2,7.8-5s-3.5-5-7.8-5s-7.8,2.2-7.8,5
			c0,1.6,1.2,2.9,3,3.8L401.2,253.9z M416.9,235.2c1.2,0,2.2,0.6,2.2,1.4c0,0.8-1,1.4-2.2,1.4s-2.2-0.6-2.2-1.4
			C414.7,235.8,415.7,235.2,416.9,235.2z"/>
	</g>
</g>
<g>
	<path class="st9" d="M1257.9,120.1c0-9.5,0-52.6,0-52.6h-13.1h-7.7H1224c0,0,0,43.1,0,52.6s-33.1,21.1-33.1,34.7s0,111.9,0,115.4
		s4.3,9.3,13.9,9.3c6.5,0,22.6,0,32.3,0c4.6,0,7.7,0,7.7,0c9.7,0,25.7,0,32.3,0c9.6,0,13.9-5.8,13.9-9.3s0-101.8,0-115.4
		C1291,141.2,1257.9,129.6,1257.9,120.1z M1231.4,135.5c-2.1,1.6-4.5,3.6-7.1,5.9c-2.6,2.3-5.1,5-7.7,7.9c-1,1.5-2,3.1-2.8,4.6
		c0,1.7-1,2.9-0.6,5c0.3,3.9,0.5,7.9,0.8,12.2c0.5,8.4,0.6,17.4,0.7,26.4c0,18-1,36-2.6,49.4c-0.7,6.7-1.8,12.4-2.3,16.3
		c-0.6,3.9-1.2,6.2-1.2,6.2s-0.5-2.3-1.2-6.2c-0.5-3.9-1.6-9.5-2.3-16.3c-1.6-13.5-2.6-31.5-2.6-49.4c0.1-9,0.2-18,0.7-26.4
		c0.3-4.2,0.6-8.3,0.8-12.2c-0.1-1.8,1.1-4.2,1.8-6.2c1.4-1.8,2.9-3.5,4.4-5.1c1.8-1.5,3.4-2.9,5.1-4.2c1.8-1.2,3.6-2.4,5.2-3.5
		c3.4-2.1,6.4-3.9,9-5.3c5.2-2.8,8.5-4.2,8.5-4.2S1235.5,132.3,1231.4,135.5z"/>
</g>
<path class="st10" d="M1342.7,192.5c8.2,24.9,10.2,51.1,9,77c-0.2,3.1,4.6,1.2,4.7-1.1c1.3-26.2-0.7-52.9-9-78.1
	C1346.4,187.5,1342,190.4,1342.7,192.5z M1417.5,215c2,6.6,0.6,13.4,1,20.2c0.6,9,6.6,16,14.1,21.5c0.5-1.3,0.9-2.6,1.4-3.9
	c-6.8,2.7-17.7,7.1-17.1,15.4c0.5,7.1,6.5,12.2,5.1,19.8c-0.6,3.1,4.2,1.1,4.7-1.1c1.1-5.7-1-10.5-3.5-15.6c-1-2.1-2.1-4.3-1.3-6.6
	c1.4-4,9.2-6.4,12.9-7.9c1.3-0.5,2.9-2.8,1.4-3.9c-7.6-5.7-12.8-12.2-13.1-21.4c-0.2-6.3,1-12.4-0.9-18.6
	C1421.3,210,1416.9,212.8,1417.5,215z M1419.2,90.4c-29.8,0-54,28-54,62.5s40.3,65,54,65s54-30.5,54-65
	C1473.2,118.3,1449.1,90.4,1419.2,90.4z M1433.5,109.3l10-4.1c30.5,29.2,7.6,51.7,7.6,51.7C1461.5,129.7,1433.5,109.3,1433.5,109.3z
	 M1350.7,191.4h-7.3c0,0-1.2,6.3-4.5,8.2c-3.2,1.9,9.2-4.4,14.3-0.2C1352.3,198.7,1349.2,195.8,1350.7,191.4z M1353.2,199.4
	c0.1,0.1,0.2,0.2,0.2,0.2C1353.4,199.5,1353.3,199.5,1353.2,199.4z M1426,213.5h-7.3c0,0-1.2,6.3-4.5,8.2c-3.2,1.9,9.2-4.4,14.3-0.2
	C1427.6,220.8,1424.5,217.9,1426,213.5z M1428.5,221.5c0.2,0.1,0.2,0.2,0.2,0.2C1428.7,221.6,1428.6,221.6,1428.5,221.5z
	 M1394.9,94.2c-9.8-16.2-25.9-26.7-44.3-26.7c-29.8,0-54,28-54,62.5s40.3,65,54,65c5.4,0,14.8-4.6,24.2-12.4
	c-6.4-9.6-10.8-20.5-10.8-31.9C1364.1,125.7,1376.7,104.2,1394.9,94.2z M1323.4,99.6c-0.5,0.5-1,1-1.5,1.4c-1,1-1.9,2-2.8,3.1
	c-1.8,2.1-3.5,4.3-5.1,6.6c-3.1,4.6-5.5,9.6-6.8,14.8c-1.3,5.2-1.4,10.8,0,16.1c1.4,5.4,4.3,10.5,8.2,15c-4.6-3.9-8.4-8.7-10.9-14.2
	s-3.4-11.6-2.9-17.7c0.5-6,2.3-12,4.8-17.5c1.3-2.8,2.7-5.5,4.4-8.1c0.8-1.3,1.7-2.6,2.6-3.9c0.5-0.6,0.9-1.3,1.4-1.9s1-1.2,1.6-2
	l8.4,7C1324.4,98.6,1323.9,99.1,1323.4,99.6z"/>
<g>
	<path class="st11" d="M1289,369.1c1.2-13.3-8.8-20.6-8.8-20.6l-42.1,0.8l-42.1-0.8c0,0-10,7.3-8.8,20.6
		c1.2,13.3,45.7,20.4,45.7,28.6c0,8,0,49,0,51.1c-0.5,6.4-18.9,9.6-30.3,11c-2.5,0.3-1.8,0.7,0,0.7c1.7,0,31.7,0,35.4,0
		c0.2,0,0.4,0,0.4,0c3.7,0,33.7,0,35.4,0c1.8,0,2.5-0.3,0-0.7c-11.5-1.4-30.2-4.7-30.2-11.2c0,0-0.1-43.1-0.1-50.9
		C1243.4,389.5,1287.9,382.4,1289,369.1z M1219.1,382.7c-4.7-1.8-10.8-4.5-16.3-7.8l-2-1.3c-0.7-0.5-1.5-1.1-1.9-1.5
		c-1.3-1.2-2-2.7-2.2-3.8c-0.5-2.5-0.2-4.6,0.3-6.4c1.1-3.6,2.9-5.8,2.9-5.8s0.4,2.4,1,5.9c0.3,1.7,0.6,3.7,1.3,5.6
		c0.3,1,0.8,1.7,1.6,2.4c1,0.9,1.9,1.5,3.2,2.4c5.1,3.2,10.3,6.5,14.1,8.9c3.8,2.5,6.3,4.3,6.3,4.3S1223.9,384.5,1219.1,382.7z"/>
</g>
<g>
	<path class="st11" d="M1407.6,369.1c1.2-13.3-8.8-20.6-8.8-20.6l-42.1,0.8l-42.1-0.8c0,0-10,7.3-8.8,20.6
		c1.2,13.3,45.7,20.4,45.7,28.6c0,8,0,49,0,51.1c-0.5,6.4-18.9,9.6-30.3,11c-2.5,0.3-1.8,0.7,0,0.7c1.7,0,31.7,0,35.4,0
		c0.2,0,0.4,0,0.4,0c3.7,0,33.7,0,35.4,0c1.8,0,2.5-0.3,0-0.7c-11.5-1.4-30.2-4.7-30.2-11.2c0,0-0.1-43.1-0.1-50.9
		C1361.9,389.5,1406.5,382.4,1407.6,369.1z M1337.7,382.7c-4.7-1.8-10.8-4.5-16.3-7.8l-2-1.3c-0.7-0.5-1.5-1.1-1.9-1.5
		c-1.3-1.2-2-2.7-2.2-3.8c-0.5-2.5-0.2-4.6,0.3-6.4c1.1-3.6,2.9-5.8,2.9-5.8s0.4,2.4,1,5.9c0.3,1.7,0.6,3.7,1.3,5.6
		c0.3,1,0.8,1.7,1.6,2.4c1,0.9,1.9,1.5,3.2,2.4c5.1,3.2,10.3,6.5,14.1,8.9c3.8,2.5,6.3,4.3,6.3,4.3S1342.5,384.5,1337.7,382.7z"/>
</g>
</svg>
