<?xml version="1.0" encoding="utf-8"?>
<!-- Generator: Adobe Illustrator 19.2.1, SVG Export Plug-In . SVG Version: 6.00 Build 0)  -->
<svg version="1.1" id="Layer_1" xmlns="http://www.w3.org/2000/svg" xmlns:xlink="http://www.w3.org/1999/xlink" x="0px" y="0px"
	 viewBox="0 0 1680.2 768" style="enable-background:new 0 0 1680.2 768;" xml:space="preserve">
<style type="text/css">
	.st0{fill:#363636;}
	.st1{clip-path:url(#SVGID_3_);fill:#363636;}
	.st2{fill:#9E1939;stroke:#95A5A6;stroke-miterlimit:10;}
	.st3{fill:#331F0E;stroke:#95A5A6;stroke-miterlimit:10;}
	.st4{fill:#E67E22;}
	.st5{fill:#27AE60;}
	.st6{fill:#BDC3C7;}
	.st7{fill:#C42662;}
	.st8{fill:#8E44AD;}
	.st9{fill:#00699B;}
	.st10{fill:#C5C600;}
	.st11{fill:#2C3E50;}
	.st12{fill:#005C4D;}
	.st13{fill:#16A085;}
	.st14{fill:#C0392B;}
	.st15{fill:#FFFFFF;}
	.st16{fill:#FFFB6E;}
</style>
<g>
	<g>
		<g>
			<g>
				<rect id="SVGID_1_" x="-1.7" y="0.5" class="st0" width="1680" height="768"/>
			</g>
			<g>
				<g>
					<defs>
						<rect id="SVGID_2_" x="-1.7" y="0.5" width="1680" height="768"/>
					</defs>
					<clipPath id="SVGID_3_">
						<use xlink:href="#SVGID_2_"  style="overflow:visible;"/>
					</clipPath>
					<rect x="-1.7" y="0.5" class="st1" width="1680" height="768"/>
				</g>
			</g>
		</g>
	</g>
</g>
<g>
	<g>
		<path class="st2" d="M642.6,586.1h398.3l7.6,105.2h41.4V528.7v-57.4h-57.4H650.1h-57.4v219.9h43L642.6,586.1z M646.3,528.7h390.4
			l2.1,28.7H644.4L646.3,528.7z"/>
		<polygon class="st3" points="592.4,461.8 1089.6,461.8 1108.7,433.1 573.2,433.1 		"/>
	</g>
</g>
<g>
	<polygon class="st4" points="0.3,0.5 0.3,11.1 41.7,11.1 41.7,52.4 65.6,41.8 88.8,52.4 88.8,11.1 124.5,11.1 124.5,52.4 
		148.4,41.8 171.6,52.4 171.6,11.1 212.3,11.1 212.3,0.5 	"/>
	<polygon class="st4" points="0.3,114.3 24.2,103.7 47.4,114.3 47.4,73 83.1,73 83.1,114.3 107,103.7 130.2,114.3 130.2,73 
		165.2,73 165.2,114.3 189.1,103.7 212.3,114.3 212.3,62.4 0.3,62.4 	"/>
</g>
<g>
	<polygon class="st5" points="848.3,0.5 848.3,11.1 889.7,11.1 889.7,52.4 913.6,41.8 936.8,52.4 936.8,11.1 972.5,11.1 972.5,52.4 
		996.4,41.8 1019.6,52.4 1019.6,11.1 1060.3,11.1 1060.3,0.5 	"/>
	<polygon class="st5" points="848.3,114.3 872.2,103.7 895.4,114.3 895.4,73 931.1,73 931.1,114.3 955,103.7 978.2,114.3 978.2,73 
		1013.2,73 1013.2,114.3 1037.1,103.7 1060.3,114.3 1060.3,62.4 848.3,62.4 	"/>
</g>
<g>
	<polygon class="st6" points="636.3,0.5 636.3,11.1 677.7,11.1 677.7,52.4 701.6,41.8 724.8,52.4 724.8,11.1 760.5,11.1 760.5,52.4 
		784.4,41.8 807.6,52.4 807.6,11.1 848.3,11.1 848.3,0.5 	"/>
	<polygon class="st6" points="636.3,114.3 660.2,103.7 683.4,114.3 683.4,73 719.1,73 719.1,114.3 743,103.7 766.2,114.3 766.2,73 
		801.2,73 801.2,114.3 825.1,103.7 848.3,114.3 848.3,62.4 636.3,62.4 	"/>
</g>
<g>
	<polygon class="st7" points="424.3,0.5 424.3,11.1 465.7,11.1 465.7,52.4 489.6,41.8 512.8,52.4 512.8,11.1 548.5,11.1 548.5,52.4 
		572.4,41.8 595.6,52.4 595.6,11.1 636.3,11.1 636.3,0.5 	"/>
	<polygon class="st7" points="424.3,114.3 448.2,103.7 471.4,114.3 471.4,73 507.1,73 507.1,114.3 531,103.7 554.2,114.3 554.2,73 
		589.2,73 589.2,114.3 613.1,103.7 636.3,114.3 636.3,62.4 424.3,62.4 	"/>
</g>
<g>
	<polygon class="st8" points="212.3,0.5 212.3,11.1 253.7,11.1 253.7,52.4 277.6,41.8 300.8,52.4 300.8,11.1 336.5,11.1 336.5,52.4 
		360.4,41.8 383.6,52.4 383.6,11.1 424.3,11.1 424.3,0.5 	"/>
	<polygon class="st8" points="212.3,114.3 236.2,103.7 259.4,114.3 259.4,73 295.1,73 295.1,114.3 319,103.7 342.2,114.3 342.2,73 
		377.2,73 377.2,114.3 401.1,103.7 424.3,114.3 424.3,62.4 212.3,62.4 	"/>
</g>
<g>
	<polygon class="st9" points="1484.3,0.5 1484.3,11.1 1525.7,11.1 1525.7,52.4 1549.6,41.8 1572.8,52.4 1572.8,11.1 1608.5,11.1 
		1608.5,52.4 1632.4,41.8 1655.6,52.4 1655.6,11.1 1696.3,11.1 1696.3,0.5 	"/>
	<polygon class="st9" points="1484.3,114.3 1508.2,103.7 1531.4,114.3 1531.4,73 1567.1,73 1567.1,114.3 1591,103.7 1614.2,114.3 
		1614.2,73 1649.2,73 1649.2,114.3 1673.1,103.7 1696.3,114.3 1696.3,62.4 1484.3,62.4 	"/>
</g>
<g>
	<polygon class="st10" points="1272.3,0.5 1272.3,11.1 1313.7,11.1 1313.7,52.4 1337.6,41.8 1360.8,52.4 1360.8,11.1 1396.5,11.1 
		1396.5,52.4 1420.4,41.8 1443.6,52.4 1443.6,11.1 1484.3,11.1 1484.3,0.5 	"/>
	<polygon class="st10" points="1272.3,114.3 1296.2,103.7 1319.4,114.3 1319.4,73 1355.1,73 1355.1,114.3 1379,103.7 1402.2,114.3 
		1402.2,73 1437.2,73 1437.2,114.3 1461.1,103.7 1484.3,114.3 1484.3,62.4 1272.3,62.4 	"/>
</g>
<g>
	<polygon class="st11" points="1060.3,0.5 1060.3,11.1 1101.7,11.1 1101.7,52.4 1125.6,41.8 1148.8,52.4 1148.8,11.1 1184.5,11.1 
		1184.5,52.4 1208.4,41.8 1231.6,52.4 1231.6,11.1 1272.3,11.1 1272.3,0.5 	"/>
	<polygon class="st11" points="1060.3,114.3 1084.2,103.7 1107.4,114.3 1107.4,73 1143.1,73 1143.1,114.3 1167,103.7 1190.2,114.3 
		1190.2,73 1225.2,73 1225.2,114.3 1249.1,103.7 1272.3,114.3 1272.3,62.4 1060.3,62.4 	"/>
</g>
<path class="st12" d="M1029.4,512.8c-0.9-1.1-2.3-1.5-3.6-1.2c-6.2,1.6-16.9,3.3-35,3.5c-12.4,0.1-24.2,9.6-30.4,18.4
	c-6.2-8.8-18-18.2-30.4-18.4c-18.1-0.2-28.8-1.8-35-3.5c-1.3-0.4-2.7,0.1-3.6,1.2c-0.9,1.1-1.2,2.6-0.7,4c1.6,4.6,3,10.6,2.8,17
	c-0.6,12.5,16,22.7,35.7,22.7c13.5,0,25.2-1.7,31.3-5.5c6.1,3.9,17.8,5.5,31.3,5.5c6.7,0,13-1.2,18.5-3.2v83.1
	c0,2.9,2.2,5.2,4.9,5.2c2.7,0,4.9-2.3,4.9-5.2v-88.5c4.9-3.9,7.7-8.7,7.5-14.1c-0.3-6.4,1.1-12.4,2.8-17
	C1030.5,515.4,1030.3,513.8,1029.4,512.8z M926.5,547.2c-9.5-1.3-16.7-7.1-16-12.9c0.7-5.8,9-9.5,18.5-8.2c9.5,1.3,16.7,7.1,16,12.9
	C944.3,544.8,936,548.5,926.5,547.2z M994.1,547.2c-9.5,1.3-17.8-2.4-18.5-8.2c-0.7-5.8,6.4-11.6,16-12.9c9.5-1.3,17.8,2.4,18.5,8.2
	C1010.8,540.1,1003.6,545.9,994.1,547.2z"/>
<g>
	<g id="Layer_2_15_">
		<g>
			<path class="st13" d="M1059.4,433.1c29.9-0.6,39.7-7.5,39.7-7.5v-56.1c-10.1,2.6-24.1,4.3-39.7,4.6V433.1L1059.4,433.1z"/>
			<path class="st13" d="M1011.5,425.6c0,0,9.9,6.9,39.7,7.5v-59c-15.6-0.3-29.6-2-39.7-4.6C1011.5,369.5,1011.5,425.6,1011.5,425.6
				z"/>
			<path class="st14" d="M1008.4,341.3L1008.4,341.3C1008.4,341.3,1008.4,341.3,1008.4,341.3
				C1008.4,341.3,1008.4,341.3,1008.4,341.3z"/>
			<path class="st14" d="M1008.4,341.3v22.2c14.1,3.6,28.5,5.5,42.9,5.9v-18.3C1027.2,350.6,1008.4,346.4,1008.4,341.3z"/>
			<path class="st14" d="M1102.3,341.3C1102.3,341.3,1102.3,341.3,1102.3,341.3c0,5.1-18.9,9.3-42.9,9.8v18.3
				c14.4-0.3,28.8-2.3,42.9-5.9L1102.3,341.3C1102.3,341.3,1102.3,341.3,1102.3,341.3z"/>
			<path class="st14" d="M1102.3,336.8c0-3.6-9.2-6.7-22.9-8.4c0,0.2-0.1,0.4-0.1,0.6c-0.2,0.9-0.3,1.8-0.4,2.6
				c0,0.6,0.1,1.4,0.2,2.3c0.4,2.4,0.8,5.3-1.2,7.5c-1.2,1.3-2.8,1.9-4.7,1.9c-5.6,0-12.5-5.7-13.6-6.6c-1,0.7-2.1,1.1-3.4,1.1h-1.9
				c-1.3,0-2.4-0.4-3.4-1.1c-4.4,4-9.7,6.3-14.2,6.3h0l-0.3,0c-1.6,0-2.8-0.6-3.7-1.7c-1.8-2.1-1.6-5.6-1.4-8.6
				c0.1-1.4,0.2-2.8,0-3.6c-0.1-0.3-0.1-0.5-0.1-0.7c-13.7,1.7-22.9,4.8-22.9,8.4c0,5.4,21,9.8,47,9.8
				C1081.3,346.6,1102.3,342.2,1102.3,336.8z"/>
			<path class="st14" d="M1054.5,334.5h1.7c2,0,3.6-1.7,3.6-3.8v-2c0-2.1-1.6-3.8-3.6-3.8h-1.7c-2,0-3.6,1.7-3.6,3.8v2
				C1050.9,332.9,1052.5,334.5,1054.5,334.5z"/>
			<path class="st14" d="M1062.3,328.5v2.2c0,0.1,0,0.2,0,0.3c0,1.1-0.4,2.1-1,2.9c3.4,3,10.9,7.8,14,4.4c1.7-1.9,0.3-5.3,0.4-7.5
				c0.1-1.8,0.7-3.5,0.7-5.3c0,0,0,0,0,0s0,0,0,0c0-0.1,0,0,0,0c0.2-9.3-11.2-4.4-15.7-0.8c0.9,0.9,1.5,2.2,1.6,3.6
				C1062.3,328.3,1062.3,328.4,1062.3,328.5z"/>
			<path class="st14" d="M1037.4,339.1c4.2,0.1,8.6-2.3,11.8-5.2c-0.6-0.8-1-1.8-1-2.9c0-0.1,0-0.2,0-0.3v-2.2c0-0.1,0-0.2,0-0.3
				c0.1-1.4,0.7-2.7,1.6-3.6c-5.6-4.7-17.7-7.8-15.3,3.6C1035.1,331.4,1032.5,339,1037.4,339.1z"/>
		</g>
		<path class="st14" d="M1001.4,413.2L1001.4,413.2L1001.4,413.2z"/>
	</g>
</g>
<g>
	<g>
		<path class="st15" d="M486.8,147.5h-6.9c0.2-0.3,0.4-0.6,0.4-0.9c0-1.7-2.6-3-5.9-3s-5.9,1.3-5.9,3c0,0.3,0.2,0.6,0.4,0.9h-22.5
			c0.2-0.3,0.4-0.6,0.4-0.9c0-1.7-2.6-3-5.9-3c-3.2,0-5.9,1.3-5.9,3c0,0.3,0.2,0.6,0.4,0.9h-22.5c0.2-0.3,0.4-0.6,0.4-0.9
			c0-1.7-2.6-3-5.9-3s-5.9,1.3-5.9,3c0,0.3,0.2,0.6,0.4,0.9h-22.5c0.2-0.3,0.4-0.6,0.4-0.9c0-1.7-2.6-3-5.9-3c-3.2,0-5.9,1.3-5.9,3
			c0,0.3,0.2,0.6,0.4,0.9h-22.5c0.2-0.3,0.4-0.6,0.4-0.9c0-1.7-2.6-3-5.9-3s-5.9,1.3-5.9,3c0,0.3,0.2,0.6,0.4,0.9H328
			c-9.3,0-16.8,3.8-16.8,8.6v81c0,4.7,7.5,8.6,16.8,8.6h139.9l35.8-18.2V156C503.6,151.3,496.1,147.5,486.8,147.5z M494.4,225.4
			l-1.9,1h-14.4c-6.7,0-12.2,2.8-12.2,6.2v7.3l-1.9,1H328c-4.2,0-7.6-1.7-7.6-3.9v-77.9h174.1V225.4z"/>
		<path class="st16" d="M379.4,207.3l27.2,25c0,0,0.1,0,0.1,0c0.1,0,0.1,0.1,0.2,0.1c0,0,0,0,0.1,0c0.1,0,0.2,0,0.4,0c0,0,0,0,0,0
			c0,0,0,0,0,0c0.1,0,0.3,0,0.4,0c0,0,0,0,0.1,0c0.1,0,0.1-0.1,0.2-0.1c0,0,0.1,0,0.1,0l27.2-25c11.5-0.1,20.8-8.3,20.8-15.4
			c0-7.2-9.3-13-20.9-13c-0.1,0-0.3,0-0.4,0c0.2,0.8,0.4,1.5,0.4,2.3c0,1.9-0.6,3.9-1.7,5.9l0.4,0l2.1-2.1l2.1,2.1l4.6,0.3l-3.3,1.7
			l0.8,2.3l-4.1-1.1l-4.1,1.1l0.8-2.3l-0.3-0.1c-1.3,1.8-3.1,3.6-5.2,5.1l1.1,1.2l4.6,0.3l-3.3,1.7l0.8,2.3l-4.1-1.1l-4.1,1.1
			l0.8-2.3l-0.6-0.3c-1.6,0.8-3.3,1.5-5.2,2c3.3,4.3,9.3,7.8,16.4,8.3l-25.3,23.3v-33.9c11.1-0.4,20-8.4,20-15.3
			c0-7.2-9.3-13-20.9-13c-11.5,0-20.9,5.8-20.9,13c0,7,8.9,14.9,20,15.3v33.9l-25.3-23.3c7.1-0.5,13.1-4,16.4-8.3
			c-1.9-0.5-3.6-1.2-5.2-2l-0.6,0.3l0.8,2.3l-4.1-1.1l-4.1,1.1l0.8-2.3l-3.3-1.7l4.6-0.3l1.1-1.2c-2.1-1.5-3.9-3.3-5.2-5.1l-0.3,0.1
			l0.8,2.3l-4.1-1.1l-4.1,1.1l0.8-2.3l-3.3-1.7l4.6-0.3l2.1-2.1l2.1,2.1l0.4,0c-1-1.9-1.7-3.9-1.7-5.9c0-0.8,0.2-1.5,0.4-2.3
			c-0.1,0-0.3,0-0.4,0c-11.5,0-20.9,5.8-20.9,13C358.7,199,368,207.2,379.4,207.3z M443.7,195.2l2.1-2.1l2.1,2.1l4.6,0.3l-3.3,1.7
			l0.8,2.3l-4.1-1.1l-4.1,1.1l0.8-2.3l-3.3-1.7L443.7,195.2z M417.1,181.7l2.1,2.1l4.6,0.3l-3.3,1.7l0.8,2.3l-4.1-1.1l-4.1,1.1
			l0.8-2.3l-3.3-1.7l4.6-0.3L417.1,181.7z M401.7,188.2l-4.1-1.1l-4.1,1.1l0.8-2.3l-3.3-1.7l4.6-0.3l2.1-2.1l2,2.1l4.6,0.3l-3.3,1.7
			L401.7,188.2z M403.3,180.1l0.8-2.3l-3.3-1.7l4.6-0.3l2.1-2.1l2.1,2.1l4.6,0.3l-3.3,1.7l0.8,2.3l-4.1-1.1L403.3,180.1z
			 M362.3,195.6l4.6-0.3l2.1-2.1l2.1,2.1l4.6,0.3l-3.3,1.7l0.8,2.3l-4.1-1.1l-4.1,1.1l0.8-2.3L362.3,195.6z"/>
	</g>
</g>
</svg>
