<?xml version="1.0" encoding="utf-8"?>
<!-- Generator: Adobe Illustrator 19.2.1, SVG Export Plug-In . SVG Version: 6.00 Build 0)  -->
<svg version="1.1" id="Layer_1" xmlns="http://www.w3.org/2000/svg" xmlns:xlink="http://www.w3.org/1999/xlink" x="0px" y="0px"
	 viewBox="0 0 1680 768" style="enable-background:new 0 0 1680 768;" xml:space="preserve">
<style type="text/css">
	.st0{fill:#008D8B;}
	.st1{fill:#010007;}
	.st2{clip-path:url(#SVGID_2_);fill:#E6E6E6;}
	.st3{clip-path:url(#SVGID_4_);fill:#677100;stroke:#FFFFFF;stroke-width:6.7065;stroke-miterlimit:10;}
	.st4{fill:#B10031;}
	.st5{fill:#3B053B;}
	.st6{fill:#FFDA44;}
	.st7{fill:#19030B;}
	.st8{fill:#750D31;}
	.st9{fill:#EFEB70;}
	.st10{fill:#006F7F;}
	.st11{fill:#FFFFFF;}
	.st12{display:none;}
	.st13{fill:#B8001E;}
</style>
<g id="Background">
</g>
<g id="Art">
	<g>
		<rect class="st0" width="1680" height="516.5"/>
		<rect x="1211.6" y="255.4" class="st1" width="468.4" height="35.6"/>
		<g>
			<g>
				<defs>
					<rect id="SVGID_1_" y="516.5" width="1680" height="251.5"/>
				</defs>
				<clipPath id="SVGID_2_">
					<use xlink:href="#SVGID_1_"  style="overflow:visible;"/>
				</clipPath>
				<rect y="516.5" class="st2" width="1680" height="251.5"/>
			</g>
			<g>
				<defs>
					<rect id="SVGID_3_" y="516.5" width="1680" height="251.5"/>
				</defs>
				<clipPath id="SVGID_4_">
					<use xlink:href="#SVGID_3_"  style="overflow:visible;"/>
				</clipPath>
				<path class="st3" d="M725,334.2v548.7 M802.3,882.8V334.2 M570.4,882.8V334.2 M647.7,334.2v548.7 M415.8,882.8V334.2
					 M493.1,334.2v548.7 M261.1,882.8V334.2 M338.4,334.2v548.7 M183.8,334.2v548.7 M106.4,334.2v548.7 M1343.4,334.2v548.7
					 M1420.7,882.8V334.2 M1498,882.8V334.2 M1575.4,882.8V334.2 M1651.3,882.8V334.2 M1188.8,334.2v548.7 M1266.1,882.8V334.2
					 M1034.2,334.2v548.7 M1111.5,882.8V334.2 M879.6,334.2v548.7 M956.9,882.8V334.2 M-8.4,419.6h1699.8 M-8.4,347.2h1699.8
					 M-8.4,564.3h1699.8 M-8.4,491.9h1699.8 M1691.4,709.1H-8.4 M1691.4,636.7H-8.4 M1691.1,853.9H-8.6 M1691.4,781.5H-8.4
					 M30.3,334.2v548.7"/>
			</g>
		</g>
		<g>
			<g>
				<path d="M396.8,281.8h-23.4v155.3c0,4.5-3.6,8.1-8.1,8.1c-4.5,0-8.1-3.6-8.1-8.1V281.8H193.3c-5.1,0-9.3,4.2-9.3,9.3v213.9
					c0,5.1,4.2,9.3,9.3,9.3h203.5c5.2,0,9.3-4.2,9.3-9.3V291.1C406.2,286,402,281.8,396.8,281.8z"/>
				<path d="M396.8,133.7H193.3c-5.1,0-9.3,4.2-9.3,9.3v122.4c0,5.2,4.2,9.3,9.3,9.3h163.9v-97c0-4.5,3.6-8.1,8.1-8.1
					c4.5,0,8.1,3.6,8.1,8.1v97h23.4c5.1,0,9.3-4.2,9.3-9.3V143C406.2,137.9,402,133.7,396.8,133.7z"/>
			</g>
		</g>
		<g>
			<g>
				<path class="st4" d="M1284.7,184.8c-2.1,0-8.1,0-15.8,0c-2-2.1-4.8-3.8-8-4.9c0-2.4-0.2-6.5-2.4-9.6c-1.7-2.5-4.2-3.8-7.4-3.8
					c-3.2,0-5.7,1.3-7.4,3.8c-2,3-2.3,6.8-2.2,9.3c-3.6,1.2-6.6,3-8.8,5.2c-9.8,0-17.7,0-19.8,0c-6.3,0-7.8,6.6-7.8,9.8
					c2.8,0,86.5,0,88.5,0C1293.7,190.8,1292.3,184.8,1284.7,184.8z M1250.8,178.2c-1.8,0-3.4,0.2-5.1,0.4c0-1.6,0.3-3.6,1.2-5
					c0.9-1.3,2.2-1.9,4.1-1.9c1.9,0,3.3,0.6,4.2,1.9c1,1.4,1.3,3.4,1.4,5C1254.7,178.4,1252.8,178.2,1250.8,178.2z"/>
				<path class="st4" d="M1297.4,208.1c-1,0.4-2.3,1.8-3.2,2.9c0.2-3,0.4-5.4,0.5-7h1.7v-5.4h-93.8v5.4h2.4c0,1.6,0.1,4.1,0.3,7.1
					c-1-1.2-2.2-2.5-3.2-2.9c-1.9-0.8-8.3,0-8.3,0v3.2c0,0,6.3-0.3,7.7,0.7c1.4,1,2.8,9.2,3.9,9.2c0.2,0,0.4,0,0.7,0
					c1.1,12.2,2.9,26.6,7.7,31.8h-3.6v4.1h78.3v-4.1h-4.1c4.6-5.2,7.3-19.7,8.8-31.9c0.4,0,0.8,0,1,0c1.1,0,2.6-8.2,3.9-9.2
					c1.4-1,7.7-0.7,7.7-0.7v-3.2C1305.7,208.1,1299.3,207.3,1297.4,208.1z M1216.9,244.6c-1.8-4-3.6-9.6-4.2-15.9
					c-0.2-1.7-0.2-2.9-0.3-4.6c0-1.5,0-2.9,0.1-4.3c0.2-2.8,0.4-5.4,0.9-7.7c0.4-2.2,0.8-4,1.2-5.3c0.4-1.3,0.7-1.9,0.7-1.9
					s0.3,3,0.5,7.4c0.2,2.2,0.3,4.7,0.5,7.4c0.1,1.3,0.2,2.7,0.2,4.2c0.1,1.3,0.2,2.9,0.3,4.2c0.1,1.3,0.3,2.8,0.5,4.1
					c0.2,1.4,0.4,2.7,0.6,4.1c0.4,2.7,0.8,5.1,1.2,7.3c0.8,4.3,1.2,7.3,1.2,7.3S1218.6,248.6,1216.9,244.6z"/>
			</g>
		</g>
		<g>
			<g>
				<rect x="587.8" y="505.4" class="st5" width="33" height="13.5"/>
				<rect x="443.5" y="505.4" class="st5" width="33" height="13.5"/>
				<path class="st5" d="M618.1,383.9H437.8c-8.8,0-15.9,6.9-15.9,15.4v86.8c0,8.5,7.1,15.4,15.9,15.4h180.3
					c8.7,0,15.8-6.9,15.8-15.4v-86.8C633.9,390.8,626.8,383.9,618.1,383.9z M567.3,481.5H439.1v-78.8h128.3V481.5z M596,481.5h-19.6
					v-12.4H596V481.5z M611.8,445.1v4.7h-25.6v-4.7H611.8z M586.2,440.6v-4.7h25.6v4.7H586.2z M611.8,455.5v4.7h-25.6v-4.7H611.8z
					 M618.5,481.5H599v-12.4h19.6V481.5L618.5,481.5z M618.5,427.5h-40.7v-24.8h40.7V427.5z"/>
			</g>
		</g>
		<g>
			<path class="st6" d="M1403.8,213.6l-11.3-8.6l25.5-18.4l8.4-5.1l-4.8-3.6l-7.3,6.3l-24.5,18.8l-24.8-19l-6.9-6.2l-4.8,3.6
				l8.4,5.4l25.4,18.3l-11.3,8.6h-42.1c0,0,4.2,18.8,10.6,24.5c6.4,5.7,28,14.9,28,14.9v2.4h16.8h1.1h16.8V253c0,0,21.6-9.2,28-14.9
				c6.4-5.7,10.6-24.5,10.6-24.5H1403.8L1403.8,213.6z M1366.6,244.3c-2.1-0.9-4.5-2.1-7-3.5c-1.2-0.7-2.5-1.4-3.8-2.2
				c-1.3-0.8-2.4-1.6-3.6-2.5c-1.3-1-2.4-2.1-3.3-3.2c-0.9-1.1-1.5-2.3-2-3.4c-1-2.3-1.5-4.5-1.6-6.3c-0.3-3.7,0.4-6.2,0.4-6.2
				s0.9,2.4,2.3,5.8c0.7,1.7,1.7,3.6,2.9,5.5c0.6,1,1.3,1.9,2.1,2.8c0.8,0.9,1.7,1.7,2.7,2.4c1.1,0.8,2.3,1.8,3.4,2.5
				c1.1,0.8,2.2,1.6,3.3,2.3c2.2,1.5,4.2,3,6,4.3c3.5,2.5,5.7,4.4,5.7,4.4S1370.9,246.2,1366.6,244.3z M1380.6,213.6l9.3-6.7
				l9.3,6.7H1380.6z"/>
		</g>
		<g>
			<g>
				<path class="st7" d="M593.9,323.5l-5.1-1.6l0-4c0,0-11.2-4-25.5-4c-12,0-22.1,2.8-25.4,3.8c-3.2-1-13.4-3.8-25.4-3.8
					c-14.3,0-25,3.9-25,3.9l0,4.4l-5.7,1.4l0,65.3l3.8-1.5c0.1-0.1,12.9-4.9,24.7-4.9c10.1,0,21.9,2.7,25.5,3.6l2.4,0.6l2.2-0.7
					c3.2-0.9,13.7-3.6,23.6-3.6c11.7,0,25.9,4.9,26,4.9l3.7,1.3L593.9,323.5z M535.3,379.8c-5.1-1.2-14.7-3.2-23.5-3.2
					c-8.5,0-17.2,1.9-22,3.1v-57.1c4.6-1.1,12.6-2.7,21.4-2.7c10.9,0,20.4,2.3,24.1,3.4V379.8z M586.1,379.8
					c-5.1-1.2-14.7-3.2-23.5-3.2c-8.2,0-16.5,1.7-21.3,3v-56.3c3.6-1,13-3.4,23.7-3.4c8.7,0,16.5,1.5,21.1,2.7L586.1,379.8
					L586.1,379.8z"/>
				<path class="st8" d="M549.5,329.7c0.1,0,8.1-1.3,16.2-1.3c8.1,0,15.3,1.3,15.4,1.3l0.6-1.9c-0.3-0.1-7.6-1.4-16-1.4
					c-8.4,0-16.4,1.3-16.8,1.4L549.5,329.7z"/>
				<path class="st8" d="M581.1,335.2l0.6-1.9c-0.3-0.1-7.6-1.4-16-1.4c-8.4,0-16.4,1.3-16.8,1.4l0.6,1.9c0.1,0,8.1-1.4,16.2-1.4
					C573.8,333.8,581,335.2,581.1,335.2z"/>
				<path class="st8" d="M549.5,340.4c0.1,0,8.1-1.4,16.2-1.4c8.1,0,15.3,1.3,15.4,1.3l0.6-1.9c-0.3-0.1-7.6-1.4-16-1.4
					c-8.4,0-16.4,1.3-16.8,1.4L549.5,340.4z"/>
				<path class="st8" d="M565.7,344.5c8.1,0,15.3,1.3,15.4,1.3l0.6-1.9c-0.3-0.1-7.6-1.4-16-1.4c-8.4,0-16.4,1.3-16.8,1.4l0.6,1.9
					C549.6,345.8,557.6,344.5,565.7,344.5z"/>
				<path class="st8" d="M565.7,349.8c8.1,0,15.3,1.3,15.4,1.3l0.6-1.9c-0.3-0.1-7.6-1.4-16-1.4c-8.4,0-16.4,1.3-16.8,1.4l0.6,1.9
					C549.6,351.1,557.6,349.8,565.7,349.8z"/>
				<path class="st8" d="M565.7,353.2c-8.4,0-16.4,1.3-16.8,1.4l0.6,1.9c0.1,0,8.1-1.3,16.2-1.3c8.1,0,15.3,1.3,15.4,1.3l0.6-1.9
					C581.4,354.6,574.1,353.2,565.7,353.2z"/>
				<path class="st8" d="M548.9,359.8l0.6,1.9c0.1,0,8.1-1.3,16.2-1.3c8.1,0,15.3,1.3,15.4,1.3l0.6-1.9c-0.3-0.1-7.6-1.4-16-1.4
					C557.3,358.4,549.3,359.8,548.9,359.8z"/>
				<path class="st8" d="M548.9,365l0.6,1.9c0.1,0,8.1-1.4,16.2-1.4c8.1,0,15.3,1.3,15.4,1.3l0.6-1.9c-0.3-0.1-7.6-1.4-16-1.4
					C557.3,363.6,549.3,364.9,548.9,365z"/>
				<path class="st8" d="M548.9,370.5l0.6,1.9c0.1,0,8.1-1.4,16.2-1.4c8.1,0,15.3,1.3,15.4,1.3l0.6-1.9c-0.3-0.1-7.6-1.4-16-1.4
					C557.3,369.1,549.3,370.5,548.9,370.5z"/>
				<path class="st9" d="M510.7,336.6c-0.5,0-1-0.1-1.5-0.1c-1.8-0.1-3.3,1.3-3.5,2.9c-1.3,0.3-2.4,0.8-3.4,1.5
					c-0.9,0.7-1.3,1.8-1.2,2.8c-2.9,0.8-5,2.3-4.2,5.1h-1.4l8,15.6h19.8l8-15.6h-1.3c-0.2-1.2-1-2.3-2.5-2.6c0-0.1,0.1-0.2,0.1-0.3
					c1-2.7-1.1-4-3.5-4.6c0.1-0.9-0.2-1.9-0.9-2.7c-0.6-0.6-1.4-1-2.4-1.2c-0.2-0.8-0.7-1.5-1.6-2c-0.5-0.2-0.9-0.4-1.4-0.6
					c-0.2-0.1-0.4-0.2-0.6-0.3c-0.8-2.9-5.9-3.7-6.7-0.2C510.5,335.2,510.6,336,510.7,336.6z M505.1,363.5l-5.3-13.1l1.2,0l5.3,13.1
					L505.1,363.5z M508.4,363.5l-2.7-13l1.1,0l2.8,13L508.4,363.5L508.4,363.5z M525.8,350.4l1.2,0.1l-5.2,13.1l-1.2-0.1
					L525.8,350.4z M520.7,350.4l1.1,0.1l-2.9,13.1l-1.1,0L520.7,350.4z M515.6,350.4l1.1,0.1l-0.8,12.9h-1L515.6,350.4z
					 M511.9,350.4l0.9,13.1l-1.1,0.1l-0.9-13.1L511.9,350.4z"/>
			</g>
		</g>
		<g>
			<path class="st10" d="M1476,475.3c-3.5-0.4-40.8,6.4-47.2,8c-6.5,1.6-19.3,6.1-19.3,6.1l0,0.7l-5.9,0.5c0.1-1.8-0.4-3.7-1.8-5.6
				c-7.2,0-65.9,0-65.9,0s-58.7,0-65.9,0c-7.6,10.4,10,25.9,10,25.9h-2.6v5.2h119.6v-5.2h-6.3c0,0,9.3-10.1,12.1-16.6l6.8-0.5l0,1
				c0,0,12.4-3.9,20-4.7c7.6-0.8,41.5-3.1,46.5-3.5C1481.1,486.2,1481.5,476.1,1476,475.3z M1287.5,507.5c-2.4-1-5.4-2.8-7.9-5.4
				c-2.4-2.5-4.6-5.9-4.6-9.2c-0.1-1.5,0.8-3.2,1.3-3.5c0.6-0.5,1-0.8,1-0.8s0,0.5-0.2,1.3c-0.2,0.9,0.2,1.5,0.7,2.5
				c0.1,0.4,0.7,0.9,0.9,1.4c0.4,0.5,0.8,1,1.2,1.5c1,1,2,2.2,3.1,3.3c2.2,2.3,4.5,4.6,6.1,6.6c1.6,2,2.6,3.6,2.6,3.6
				S1290,508.5,1287.5,507.5z"/>
		</g>
		<g>
			<path class="st11" d="M1296.1,430.9c-1.2,1.3-3.6,3.8-6,6.5c-2.6-2.5-5-4.2-5.6-3.6c-1.5,1.6-57.4,58.1-57.4,58.1h0
				c-0.3,0.3-0.5,0.5-0.6,0.6c-0.6,0.6,1.1,3,3.6,5.6c-2.7,2.5-5.2,4.8-6.5,6.1c-3.3,3.3,2,8.9,5.4,5.5c1.3-1.3,3.7-3.9,6.1-6.6
				c2.7,2.4,5.1,4.1,5.5,3.7c0,0,0.1-0.1,0.1-0.1l0,0c0,0,12.5-12.7,26-26.3c11.5-11.6,22.5-22.7,22.5-22.7l0,0
				c5.4-5.5,9.2-9.2,9.5-9.5c0.5-0.4-1.2-2.8-3.6-5.5c2.7-2.5,5.2-4.9,6.5-6.2C1304.9,433,1299.4,427.6,1296.1,430.9z"/>
		</g>
	</g>
</g>
<g id="Template" class="st12">
</g>
<g>
	<path class="st6" d="M295.9,107.6c-4.2,0-6.4-1.8-8.2-3.2c-1.6-1.3-2.8-2.2-5.4-2.2c-2.6,0-3.8,0.9-5.4,2.2c-1.8,1.4-4,3.2-8.2,3.2
		c-1.2,0-2.2-0.1-3.2-0.4l-4.3,10.2c0.8,0.5,1.4,1,2,1.5c1.6,1.3,2.8,2.2,5.4,2.2c2.6,0,3.8-0.9,5.4-2.2c1.8-1.4,4-3.2,8.2-3.2
		c4.2,0,6.4,1.8,8.2,3.2c1.6,1.3,2.8,2.2,5.4,2.2c2.6,0,3.8-0.9,5.4-2.2c0.6-0.5,1.3-1,2-1.5l-4.3-10.2
		C298.2,107.5,297.1,107.6,295.9,107.6L295.9,107.6z"/>
	<path class="st6" d="M295.9,125.3c-4.2,0-6.4-1.8-8.2-3.2c-1.6-1.3-2.8-2.2-5.4-2.2c-2.6,0-3.8,0.9-5.4,2.2c-1.8,1.4-4,3.2-8.2,3.2
		c-4.2,0-6.4-1.8-8.2-3.2c-0.3-0.2-0.6-0.4-0.9-0.6l-5,12.1h55.6l-5.1-12.1c-0.3,0.2-0.6,0.4-0.9,0.7
		C302.4,123.6,300.2,125.3,295.9,125.3z"/>
	<path class="st6" d="M274.1,101.1c1.8-1.4,4-3.2,8.2-3.2c4.2,0,6.4,1.8,8.2,3.2c1.6,1.3,2.8,2.2,5.4,2.2c0.5,0,1,0,1.5-0.1
		L285,73.5l4.9,2.5l-1.4-8.1l6.1-5.7l-8.5-1.2l-3.8-7.4l-3.8,7.4l-8.5,1.2l6.1,5.7l-1.4,8.1l4.9-2.5l-12.4,29.6
		c0.4,0.1,0.9,0.1,1.5,0.1C271.3,103.3,272.5,102.4,274.1,101.1L274.1,101.1z"/>
</g>
<g>
	<path class="st13" d="M460.6,336.7c0,0-2,4.3-9.3,11.6c-2.8,2.8-3.9,6.8-3.4,10.7c-4-0.5-7.9,0.6-10.7,3.4
		c-7.3,7.3-11.6,9.3-11.6,9.3s8.1,9.1,16.6,13.4c5.4,2.7,11.8,2.4,15.9-1.7c2.8-2.8,3.9-6.8,3.4-10.7c4,0.5,7.9-0.6,10.7-3.4
		c4.1-4.1,4.4-10.5,1.7-15.9C469.7,344.8,460.6,336.7,460.6,336.7z M448.8,375.5c-2.1,2.1-6.4,1.4-6.4,1.4s-0.6-4.1,1.5-6.2
		c2.1-2.1,6.2-1.5,6.2-1.5S451,373.4,448.8,375.5L448.8,375.5z M464.4,359.9c-2.1,2.1-6.4,1.4-6.4,1.4s-0.6-4.1,1.5-6.2
		c2.1-2.1,6.2-1.5,6.2-1.5S466.6,357.8,464.4,359.9L464.4,359.9z"/>
</g>
</svg>
