<?xml version="1.0" encoding="utf-8"?>
<!-- Generator: Adobe Illustrator 19.2.1, SVG Export Plug-In . SVG Version: 6.00 Build 0)  -->
<svg version="1.1" id="Layer_1" xmlns="http://www.w3.org/2000/svg" xmlns:xlink="http://www.w3.org/1999/xlink" x="0px" y="0px"
	 viewBox="0 0 1680 768" style="enable-background:new 0 0 1680 768;" xml:space="preserve">
<style type="text/css">
	.st0{fill:#007994;}
	.st1{clip-path:url(#SVGID_2_);}
	.st2{fill:#FFFFFF;}
	.st3{fill:#E6E6E6;}
	.st4{fill:#5D0071;}
	.st5{display:none;}
	.st6{fill:#FFFF9F;}
	.st7{fill:#382C00;}
	.st8{fill:#D80027;}
	.st9{fill:#9B0008;}
	.st10{fill:#F0BC00;}
	.st11{fill:#00E21B;}
</style>
<g id="Background">
</g>
<g id="Art">
	<g>
		<rect x="0.1" class="st0" width="1680" height="516.5"/>
		<g>
			<g>
				<g>
					<defs>
						<rect id="SVGID_1_" x="-0.1" y="516.5" width="1680" height="251.5"/>
					</defs>
					<clipPath id="SVGID_2_">
						<use xlink:href="#SVGID_1_"  style="overflow:visible;"/>
					</clipPath>
					<g class="st1">
						<rect x="119.9" y="516.5" class="st2" width="62.6" height="62.9"/>
						<rect x="119.9" y="579.4" class="st3" width="62.6" height="62.9"/>
						<rect x="182.5" y="516.5" class="st3" width="62.6" height="62.9"/>
						<rect x="245.1" y="516.5" class="st2" width="62.6" height="62.9"/>
						<rect x="245.1" y="579.4" class="st3" width="62.6" height="62.9"/>
						<rect x="182.5" y="579.4" class="st2" width="62.6" height="62.9"/>
						<rect x="119.9" y="642.3" class="st2" width="62.6" height="62.9"/>
						<rect x="119.9" y="705.1" class="st3" width="62.6" height="62.9"/>
						<rect x="182.5" y="642.3" class="st3" width="62.6" height="62.9"/>
						<rect x="245.1" y="642.3" class="st2" width="62.6" height="62.9"/>
						<rect x="245.1" y="705.1" class="st3" width="62.6" height="62.9"/>
						<rect x="182.5" y="705.1" class="st2" width="62.6" height="62.9"/>
						<rect x="-5.3" y="516.5" class="st2" width="62.6" height="62.9"/>
						<rect x="-5.3" y="579.4" class="st3" width="62.6" height="62.9"/>
						<rect x="57.3" y="516.5" class="st3" width="62.6" height="62.9"/>
						<rect x="57.3" y="579.4" class="st2" width="62.6" height="62.9"/>
						<rect x="-5.3" y="642.3" class="st2" width="62.6" height="62.9"/>
						<rect x="-5.3" y="705.1" class="st3" width="62.6" height="62.9"/>
						<rect x="57.3" y="642.3" class="st3" width="62.6" height="62.9"/>
						<rect x="57.3" y="705.1" class="st2" width="62.6" height="62.9"/>
						<rect x="307.7" y="516.5" class="st3" width="62.6" height="62.9"/>
						<rect x="370.3" y="516.5" class="st2" width="62.6" height="62.9"/>
						<rect x="370.3" y="579.4" class="st3" width="62.6" height="62.9"/>
						<rect x="307.7" y="579.4" class="st2" width="62.6" height="62.9"/>
						<rect x="432.9" y="516.5" class="st3" width="62.6" height="62.9"/>
						<rect x="495.5" y="516.5" class="st2" width="62.6" height="62.9"/>
						<rect x="495.5" y="579.4" class="st3" width="62.6" height="62.9"/>
						<rect x="432.9" y="579.4" class="st2" width="62.6" height="62.9"/>
						<rect x="307.7" y="642.3" class="st3" width="62.6" height="62.9"/>
						<rect x="370.3" y="642.3" class="st2" width="62.6" height="62.9"/>
						<rect x="370.3" y="705.1" class="st3" width="62.6" height="62.9"/>
						<rect x="307.7" y="705.1" class="st2" width="62.6" height="62.9"/>
						<rect x="432.9" y="642.3" class="st3" width="62.6" height="62.9"/>
						<rect x="495.5" y="642.3" class="st2" width="62.6" height="62.9"/>
						<rect x="495.5" y="705.1" class="st3" width="62.6" height="62.9"/>
						<rect x="432.9" y="705.1" class="st2" width="62.6" height="62.9"/>
						<rect x="558.1" y="516.5" class="st3" width="62.6" height="62.9"/>
						<rect x="620.7" y="516.5" class="st2" width="62.6" height="62.9"/>
						<rect x="620.7" y="579.4" class="st3" width="62.6" height="62.9"/>
						<rect x="558.1" y="579.4" class="st2" width="62.6" height="62.9"/>
						<rect x="683.3" y="516.5" class="st3" width="62.6" height="62.9"/>
						<rect x="746" y="516.5" class="st2" width="62.6" height="62.9"/>
						<rect x="746" y="579.4" class="st3" width="62.6" height="62.9"/>
						<rect x="683.3" y="579.4" class="st2" width="62.6" height="62.9"/>
						<rect x="558.1" y="642.3" class="st3" width="62.6" height="62.9"/>
						<rect x="620.7" y="642.3" class="st2" width="62.6" height="62.9"/>
						<rect x="620.7" y="705.1" class="st3" width="62.6" height="62.9"/>
						<rect x="558.1" y="705.1" class="st2" width="62.6" height="62.9"/>
						<rect x="683.3" y="642.3" class="st3" width="62.6" height="62.9"/>
						<rect x="746" y="642.3" class="st2" width="62.6" height="62.9"/>
						<rect x="746" y="705.1" class="st3" width="62.6" height="62.9"/>
						<rect x="683.3" y="705.1" class="st2" width="62.6" height="62.9"/>
						<rect x="808.6" y="516.5" class="st3" width="62.6" height="62.9"/>
						<rect x="871.2" y="516.5" class="st2" width="62.6" height="62.9"/>
						<rect x="871.2" y="579.4" class="st3" width="62.6" height="62.9"/>
						<rect x="808.6" y="579.4" class="st2" width="62.6" height="62.9"/>
						<rect x="933.8" y="516.5" class="st3" width="62.6" height="62.9"/>
						<rect x="996.4" y="516.5" class="st2" width="62.6" height="62.9"/>
						<rect x="996.4" y="579.4" class="st3" width="62.6" height="62.9"/>
						<rect x="933.8" y="579.4" class="st2" width="62.6" height="62.9"/>
						<rect x="808.6" y="642.3" class="st3" width="62.6" height="62.9"/>
						<rect x="871.2" y="642.3" class="st2" width="62.6" height="62.9"/>
						<rect x="871.2" y="705.1" class="st3" width="62.6" height="62.9"/>
						<rect x="808.6" y="705.1" class="st2" width="62.6" height="62.9"/>
						<rect x="933.8" y="642.3" class="st3" width="62.6" height="62.9"/>
						<rect x="996.4" y="642.3" class="st2" width="62.6" height="62.9"/>
						<rect x="996.4" y="705.1" class="st3" width="62.6" height="62.9"/>
						<rect x="933.8" y="705.1" class="st2" width="62.6" height="62.9"/>
						<rect x="1059" y="516.5" class="st3" width="62.6" height="62.9"/>
						<rect x="1121.6" y="516.5" class="st2" width="62.6" height="62.9"/>
						<rect x="1121.6" y="579.4" class="st3" width="62.6" height="62.9"/>
						<rect x="1059" y="579.4" class="st2" width="62.6" height="62.9"/>
						<rect x="1184.2" y="516.5" class="st3" width="62.6" height="62.9"/>
						<rect x="1246.8" y="516.5" class="st2" width="62.6" height="62.9"/>
						<rect x="1246.8" y="579.4" class="st3" width="62.6" height="62.9"/>
						<rect x="1184.2" y="579.4" class="st2" width="62.6" height="62.9"/>
						<rect x="1059" y="642.3" class="st3" width="62.6" height="62.9"/>
						<rect x="1121.6" y="642.3" class="st2" width="62.6" height="62.9"/>
						<rect x="1121.6" y="705.1" class="st3" width="62.6" height="62.9"/>
						<rect x="1059" y="705.1" class="st2" width="62.6" height="62.9"/>
						<rect x="1184.2" y="642.3" class="st3" width="62.6" height="62.9"/>
						<rect x="1246.8" y="642.3" class="st2" width="62.6" height="62.9"/>
						<rect x="1246.8" y="705.1" class="st3" width="62.6" height="62.9"/>
						<rect x="1184.2" y="705.1" class="st2" width="62.6" height="62.9"/>
						<rect x="1309.4" y="516.5" class="st3" width="62.6" height="62.9"/>
						<rect x="1372" y="516.5" class="st2" width="62.6" height="62.9"/>
						<rect x="1372" y="579.4" class="st3" width="62.6" height="62.9"/>
						<rect x="1309.4" y="579.4" class="st2" width="62.6" height="62.9"/>
						<rect x="1434.7" y="516.5" class="st3" width="62.6" height="62.9"/>
						<rect x="1497.3" y="516.5" class="st2" width="62.6" height="62.9"/>
						<rect x="1497.3" y="579.4" class="st3" width="62.6" height="62.9"/>
						<rect x="1434.7" y="579.4" class="st2" width="62.6" height="62.9"/>
						<rect x="1309.4" y="642.3" class="st3" width="62.6" height="62.9"/>
						<rect x="1372" y="642.3" class="st2" width="62.6" height="62.9"/>
						<rect x="1372" y="705.1" class="st3" width="62.6" height="62.9"/>
						<rect x="1309.4" y="705.1" class="st2" width="62.6" height="62.9"/>
						<rect x="1434.7" y="642.3" class="st3" width="62.6" height="62.9"/>
						<rect x="1497.3" y="642.3" class="st2" width="62.6" height="62.9"/>
						<rect x="1497.3" y="705.1" class="st3" width="62.6" height="62.9"/>
						<rect x="1434.7" y="705.1" class="st2" width="62.6" height="62.9"/>
						<rect x="1559.9" y="516.5" class="st3" width="62.6" height="62.9"/>
						<rect x="1622.5" y="516.5" class="st2" width="62.6" height="62.9"/>
						<rect x="1622.5" y="579.4" class="st3" width="62.6" height="62.9"/>
						<rect x="1559.9" y="579.4" class="st2" width="62.6" height="62.9"/>
						<rect x="1559.9" y="642.3" class="st3" width="62.6" height="62.9"/>
						<rect x="1622.5" y="642.3" class="st2" width="62.6" height="62.9"/>
						<rect x="1622.5" y="705.1" class="st3" width="62.6" height="62.9"/>
						<rect x="1559.9" y="705.1" class="st2" width="62.6" height="62.9"/>
					</g>
				</g>
			</g>
		</g>
		<g>
			<path class="st4" d="M441.4,356.4c-1.8-1.7-4.4-2.6-7.1-2.6h-29.9L376.3,515h24.3c4.5,0,8.3-2.5,9.1-6l33.7-146.6
				C443.9,360.3,443.2,358.1,441.4,356.4z"/>
			<path class="st4" d="M258.6,353.8c-2.8,0-5.4,1-7.1,2.6c-1.8,1.7-2.5,3.9-2,6L283.2,509c0.8,3.5,4.6,6,9.1,6h24.3l-28.2-161.3
				L258.6,353.8L258.6,353.8z"/>
			<path class="st2" d="M263.3,343.5c0.7,0,1.4-0.1,2.1-0.2s1.4-0.3,2.1-0.6c1-0.4,2.1-0.6,3.2-0.6c1.9,0,3.7,0.6,5,1.7
				c4.6,4,11.1,6.3,17.9,6.3c1.9,0,3.8-0.2,5.7-0.5c4.8-0.9,9-2.9,12.2-5.7c-1.7-2.9-2.9-6-3.5-9.2c-0.2-0.1-0.3-0.1-0.5-0.2
				c-10.1-4.4-14.2-14.2-9.6-22.5c-1.4-0.2-2.9-0.3-4.3-0.3c-1.9,0-3.8,0.2-5.7,0.5c-8.6,1.6-15.4,6.8-17.8,13.6
				c-0.8,2.3-3.6,4-6.6,3.9h-0.2c-0.7,0-1.4,0.1-2,0.2c-4.7,0.9-7.6,4.6-6.5,8.4C255.7,341.3,259.2,343.5,263.3,343.5z"/>
			<path class="st2" d="M366.7,347.8c0.6,0.4,1.2,0.8,1.8,1c1.3,0.6,2.7,0.9,4.2,0.9c3.2,0,6.1-1.4,7.7-3.6c2.3-3.4,0.8-7.6-3.4-9.4
				c-0.6-0.3-1.3-0.5-2.1-0.6c-3-0.6-5.1-2.7-5.1-5.2c0-7-4.8-13.4-12.6-16.8c-3.5-1.5-7.2-2.3-11.1-2.4c-2.9-0.1-5.4-1.5-6.3-3.7
				c-1.4-3.6-5.6-5.9-10.3-5.9c-5.1,0-9.5,2.8-10.6,6.8c-0.5,1.7-2,3.2-4,3.8c-1.3,0.4-3.1,1.3-4.3,3c-2.3,3.4-0.8,7.6,3.4,9.4
				c0.6,0.3,1.3,0.5,2.1,0.6c3,0.6,5.1,2.7,5.1,5.2c0,7,4.8,13.4,12.6,16.8c3.6,1.6,7.6,2.4,11.7,2.4c4.6,0,9.1-1,13-3
				C361.1,345.8,364.5,346.1,366.7,347.8z"/>
			<path class="st2" d="M394.8,344.9c4.5,3.3,10.5,5.2,16.6,5.2c2.2,0,4.5-0.3,6.7-0.7c3.8-0.9,7.2-2.4,10-4.5
				c2.1-1.6,5.2-1.9,7.8-0.9c1.5,0.6,3.2,1,5,1c2.9,0,5.6-0.9,7.6-2.5c3.6-2.8,4.2-7.3,1.4-10.7c-1.2-1.5-1.4-3.3-0.6-5
				c0.8-1.5,0.9-3,0.3-4.6c-1.1-3-4.5-5-8.4-5c-0.8,0-1.6,0.1-2.4,0.3c-0.7,0.2-1.3,0.4-2,0.7c-2.7,1.2-6,0.9-8.2-0.8
				c-4.5-3.6-10.8-5.7-17.2-5.7c-2.3,0-4.5,0.3-6.7,0.7c-8.5,1.9-15,7.3-17,14.2c-0.2,0.8-0.8,1.6-1.4,2.2
				C392.6,332.6,395.8,338.8,394.8,344.9z"/>
			<path class="st4" d="M326.1,358.1c-2.7-1.2-5.2-2.6-7.4-4.3h-0.6c-4.7,3.4-10.4,6-16.9,7.2c-2,0.4-4,0.6-6.1,0.7L322,515h23.5
				V361.8c-0.4,0-0.8,0-1.2,0C338,361.8,331.7,360.5,326.1,358.1z"/>
			<path class="st4" d="M380.3,357.3c-4.2,3.5-10,5.5-16.2,5.5l0,0c-3.7,0-7.5-0.8-10.8-2.2c-0.1-0.1-0.3-0.1-0.4-0.2
				c-0.6,0.2-1.2,0.4-1.9,0.6v155.4h23.5l26.8-153.3C393.8,362.9,386.4,360.8,380.3,357.3z"/>
		</g>
	</g>
</g>
<g id="Template" class="st5">
</g>
<g>
	<path d="M1389,138.4v-26.1c0-7.9-6.2-14.5-14.9-17.1V2.6c0-3.4-15.5-3.4-15.5,0v92.7c-8.7,2.5-14.9,9.2-14.9,17.1v26.1
		c-58.2,8.3-103.2,47.8-106.7,96.1h258.8C1492.1,186.2,1447.2,146.7,1389,138.4z"/>
	<path class="st6" d="M1372.3,272.5c27.1,0,50.9-11.4,64.4-28.4h-128.8C1321.4,261.1,1345.2,272.5,1372.3,272.5z"/>
	<g>
		<path class="st7" d="M1448.9,451.8c0,0,12.3-2.3,12.3-6.8s0-26.9,0-33.9c0-6.4-9.9-9-11.8-9.6v-0.2h-182.1v2.4v2.1v3.1h120
			c4.3,0,7.9,2.3,9.2,5.3h-120.3v5.1H1397v4.5h-120.8v5.1H1397v4.2h-120.8v5.1H1397v4.5h-120.8v5.1h119.7c-1.6,2.4-4.8,4.1-8.5,4.1
			h-120v2v3.1v1.1h120c0.3,0,0.6,0,0.9,0c3.7,0,11,0,16.5-1.6L1448.9,451.8z"/>
		<path class="st7" d="M1388,458.2h-84.2v0.1c-1.9,0.6-11.8,3.2-11.8,9.6c0,7,0,29.4,0,33.9s12.3,6.8,12.3,6.8l44.3,4.8
			c5.5,1.6,12.8,1.6,16.5,1.6c0.3,0,0.6,0,0.9,0h120v-1.1v-3.1v-2h-120c-3.7,0-6.9-1.7-8.6-4.1H1477v-5.1h-120.8V495H1477v-5.1
			h-120.8v-4.2H1477v-5.1h-120.8v-4.5H1477V471h-120.3c1.3-3.1,4.9-5.3,9.2-5.3h120v-3.1v-2.1v-2.4L1388,458.2L1388,458.2z"/>
		<path class="st8" d="M1371.3,400.2c0.9,0,12.6-1.4,14.8,0.1c29.4,0,47.2-27.7,47.2-48.1c1.8-22.6-26.8-30-51.2-26
			c-0.4-0.4-1-1.2-1.7-2.2c5,1.2,9.2,1.3,13.3,0.9c4.1-0.4,7.9-1.3,11.4-2.7c3.5-1.3,6.8-3.1,9.7-5.4c2.9-2.4,5.6-5.1,7.5-9.1
			c-5.1-1.4-9.5-1.4-13.6-1s-7.9,1.3-11.4,2.7c-3.5,1.4-6.8,3.2-9.7,5.5c-2.8,2.3-5.5,5-7.4,8.9c-2.7-3.8-7-11.1-9-20.8l-5.9,0.8
			c2,10.1,6.4,17.8,9.4,22.1c-23.6-2.9-49.6,4.9-47.9,26.4C1326.9,371.9,1343.2,398.5,1371.3,400.2z"/>
	</g>
</g>
<g>
	<path class="st9" d="M251.1,80.1l24.6-19.3l24.6,19.3V45.9c6.8,0.6,13.7,1.1,20.6,1.5v32.7l24.6-19.3l24.6,19.3V47.4
		c6.9-0.4,13.7-0.8,20.6-1.5v34.2l24.6-19.3l24.6,19.3V38.7c3.9-0.8,7.7-1.6,11.6-2.5l-6.2-24.4C380,26.7,311,26.7,245.6,11.8
		l-6.2,24.4c3.9,0.9,7.7,1.7,11.6,2.5L251.1,80.1L251.1,80.1z"/>
	<path class="st10" d="M445.3,137.4c-65.3,14.9-134.4,14.9-199.7,0l-6.2,24.4c3.9,0.9,7.7,1.7,11.6,2.5v41.5l24.6-19.3l24.6,19.3
		v-34.2c6.8,0.6,13.7,1.1,20.6,1.5v32.7l24.6-19.3l24.6,19.3v-32.7c6.9-0.4,13.7-0.8,20.6-1.5v34.2l24.6-19.3l24.6,19.3v-41.5
		c3.9-0.8,7.7-1.6,11.6-2.5L445.3,137.4L445.3,137.4z"/>
	<path class="st11" d="M245.7,91.5l-6.2,24.4c34.7,7.9,70.3,11.8,106,11.8s71.3-3.9,106-11.8l-6.2-24.4
		C380,106.4,311,106.4,245.7,91.5L245.7,91.5z"/>
</g>
</svg>
