<?xml version="1.0" encoding="utf-8"?>
<!-- Generator: Adobe Illustrator 19.2.1, SVG Export Plug-In . SVG Version: 6.00 Build 0)  -->
<svg version="1.1" id="Layer_1" xmlns="http://www.w3.org/2000/svg" xmlns:xlink="http://www.w3.org/1999/xlink" x="0px" y="0px"
	 viewBox="0 0 228.2 228.2" style="enable-background:new 0 0 228.2 228.2;" xml:space="preserve">
<style type="text/css">
	.st0{fill:none;}
	.st1{fill:#FFFFFF;}
	.st2{fill:#FFFFFF;stroke:#AFAFAF;stroke-miterlimit:10;}
	.st3{font-family:'MyriadPro-Regular';}
	.st4{font-size:12px;}
	.st5{fill:#FFFFFF;stroke:#AFAFAF;stroke-width:0.5;stroke-miterlimit:10;}
	.st6{font-size:16px;}
	.st7{fill:#A20068;}
	.st8{font-size:18px;}
	.st9{fill:#C63100;}
	.st10{font-size:21px;}
</style>
<rect class="st0" width="228.2" height="228.2"/>
<circle class="st1" cx="114.1" cy="114.1" r="37.4"/>
<text transform="matrix(1 0 0 1 79 186)"><tspan x="0" y="0" class="st2 st3 st4">       </tspan><tspan x="17.8" y="0" class="st5 st3 st6">FLOUR</tspan></text>
<g>
	<path class="st7" d="M183.1,74.6c-2.7,2.8-6.1,4.5-9.4,4.5c-0.5,0-1.1,0-1.6-0.1c-8.9-1.1-23.1-5.5-33.6-12.6
		c-0.4-0.3-0.9-0.4-1.3-0.4c-3.1,0-8.1,5.3-12.5,10c-6.5,6.9-13.9,14.7-22,14.7c-0.7,0-1.4-0.1-2.1-0.2c-5.3-0.7-9.5-6.7-13.9-13.1
		C83.2,72.4,79,66.5,76,66.3c-2.3-0.1-6.3,3.6-9.7,6.3c-6,4.8-12.2,9.8-18,9.8l0,0c-1.9,0-3.7-0.6-5.2-1.7c0,0-0.1-0.1-0.1-0.1
		c-0.9-0.8-1.7-1.7-2.3-2.7C32.7,91.2,28,106.7,28,123.4c0,28.8,13.9,54.3,35.2,70h99.6c21.3-15.7,35.2-41.2,35.2-70
		C198,105.3,192.5,88.5,183.1,74.6z M161.8,140.1c0,7.8-6.6,14.2-14.8,14.2h-12.6c-3.3,3.6-8,5.8-13.4,5.8h-16
		c-5.3,0-10.1-2.3-13.4-5.8H79c-8.2,0-14.8-6.3-14.8-14.2v-12.8c0-7.8,6.6-14.2,14.8-14.2h12.6c3.3-3.6,8-5.8,13.4-5.8h16
		c5.3,0,10.1,2.3,13.4,5.8H147c8.2,0,14.8,6.3,14.8,14.2V140.1z"/>
	<path class="st7" d="M193.7,48.5v-5.1c0-6-5.1-10.9-11.3-10.9H43.6c-6.3,0-11.3,4.9-11.3,10.9v5.1c0,4.4,2.7,8.3,6.9,10
		c1.4,0.6,2.9,0.9,4.4,0.9l1.1,0l-0.1,1.1c-1.1,8.1-0.3,13.6,2.3,15.9c0.4,0.3,0.9,0.4,1.4,0.4c3.6,0,9.7-4.9,14.2-8.5
		c3.8-3.1,7.2-5.7,10.2-6.9c1-0.4,2.2-0.7,3.3-0.7c6.2,0,10.7,6.5,15.6,13.5c2.9,4.1,7.2,10.3,9.8,10.6c0,0,0.1,0,0.1,0
		c0.4,0.1,0.7,0.1,1.1,0.1c5.5,0,11.9-6.8,17.6-12.8c6-6.4,11.2-11.8,16.9-11.8c1.7,0,3.3,0.5,4.7,1.5c9.6,6.5,22.8,10.6,31,11.6
		c0,0,0.1,0,0.2,0c0.2,0,0.4,0.1,0.6,0.1c2,0,4.4-1.5,6-3.7c1.9-2.6,2.6-5.8,2.1-9.2l-0.2-1.1l1.1,0c1.5,0,3-0.4,4.4-1
		C191.1,56.7,193.7,52.8,193.7,48.5z"/>
</g>
<text transform="matrix(1 0 0 1 65 141)"><tspan x="0" y="0" class="st3 st8">    </tspan><tspan x="15.3" y="0" class="st9 st3 st10">SUGAR</tspan></text>
</svg>
